<?xml version="1.0" encoding="utf-8"?>
<svg xmlns="http://www.w3.org/2000/svg" viewBox="0 0 612 612"><path d="M612 116.26c-22.525 9.98-46.694 16.75-72.088 19.772 25.93-15.527 45.777-40.155 55.184-69.41C570.774 81 543.927 91.44 515.32 97.1c-22.907-24.437-55.5-39.658-91.63-39.658-69.334 0-125.55 56.217-125.55 125.5 0 9.828 1.11 19.427 3.25 28.606-104.33-5.24-196.84-55.223-258.75-131.17-10.823 18.5-16.98 40.078-16.98 63.1 0 43.56 22.18 81.993 55.835 104.48-20.575-.688-39.926-6.348-56.867-15.756v1.568c0 60.806 43.29 111.55 100.7 123.1-10.517 2.83-21.607 4.398-33.08 4.398a120.5 120.5 0 0 1-23.634-2.333c15.985 49.907 62.336 86.2 117.25 87.194-42.947 33.654-97.1 53.655-155.92 53.655-10.134 0-20.116-.612-29.944-1.72 55.567 35.68 121.54 56.485 192.44 56.485 230.95 0 357.2-191.3 357.2-357.2l-.42-16.253c24.666-17.593 46.005-39.697 62.794-64.86z" fill="#010002"/></svg>
