<?xml version="1.0" encoding="utf-8"?>
<svg xmlns="http://www.w3.org/2000/svg" viewBox="0 0 24 24"><path d="M12 .297a12 12 0 0 0-12 12c0 5.303 3.438 9.8 8.205 11.385.6.113.82-.258.82-.577L9 21.065c-3.338.724-4.042-1.6-4.042-1.6C4.422 18.07 3.633 17.7 3.633 17.7c-1.087-.744.084-.73.084-.73 1.205.084 1.838 1.236 1.838 1.236 1.07 1.835 2.81 1.305 3.495.998.108-.776.417-1.305.76-1.605-2.665-.3-5.466-1.332-5.466-5.93 0-1.3.465-2.38 1.235-3.22-.135-.303-.54-1.523.105-3.176 0 0 1.005-.322 3.3 1.23.96-.267 1.98-.4 3-.405 1.02.006 2.04.138 3 .405 2.28-1.552 3.285-1.23 3.285-1.23.645 1.653.24 2.873.12 3.176.765.84 1.23 1.9 1.23 3.22 0 4.6-2.805 5.625-5.475 5.92.42.36.8 1.096.8 2.22l-.015 3.286c0 .315.2.7.825.57 4.8-1.574 8.236-6.074 8.236-11.37 0-6.627-5.373-12-12-12"/></svg>
