<?xml version="1.0" encoding="utf-8"?>
<svg xmlns="http://www.w3.org/2000/svg" viewBox="0 0 841.89 595.28"><path d="M725.2 235.87l35.35-15.16-339.62-145.6-339.6 145.6 339.6 145.6L671.7 258.8z"/><path d="M704.04 300.8l-.4-77.63H674.9l-.85 77.63c-15.38 6.14-26.28 21.44-26.28 39.35 0 16.9 9.7 31.5 23.73 38.24-2.6 48.3-6.35 75.78-9.38 87.04 14.15 4.2 32.36 6.64 53.43-.03-3-11.52-6.43-39.7-8.96-87.02 14.02-6.75 23.73-21.33 23.73-38.24.02-17.9-10.88-33.2-26.26-39.34zm-106.68 31.94l-176.38 75.82-176.42-75.82c-22.54 20.12-24.65 85.17-24.3 77.4 107.8 0 198.66 106.67 200.7 110.02 2.03-3.34 94.9-110.02 200.7-110.02.01 0-1.8-58.28-24.3-77.4z"/></svg>
