<?xml version="1.0" encoding="UTF-8"?>
<!DOCTYPE svg PUBLIC "-//W3C//DTD SVG 20010904//EN" "http://www.w3.org/TR/2001/REC-SVG-20010904/DTD/svg10.dtd">
<svg version="1.0" viewBox="0 0 256 256" xmlns="http://www.w3.org/2000/svg"><g transform="translate(0 256) scale(.1 -.1)"><path d="m6 2537c-8-29-8-2485 0-2514l6-23h1268 1268l6 23c8 29 8 2485 0 2514l-6 23h-1268-1268l-6-23zm1080-854c69-142 142-292 162-333l35-75 166 333 166 332h97c54 0 98-3 98-6 0-4-99-192-220-419l-220-414v-265-266h-90-90v267 267l-220 411c-121 227-220 415-220 419 0 3 47 6 105 6h104l127-257z"/></g></svg>