<?xml version="1.0" encoding="utf-8"?>
<svg xmlns="http://www.w3.org/2000/svg" viewBox="0 0 24 24"><path d="M12 0a12 12 0 1 0 0 24 12 12 0 1 0 0-24zm6.23 16.244a.371.371 0 0 1-.373.372H16.3a.371.371 0 0 1-.372-.372v-4.828c0-.04-.046-.06-.08-.033l-3.32 3.32a.742.742 0 0 1-1.043 0l-3.32-3.32c-.027-.027-.08-.007-.08.033v4.828a.371.371 0 0 1-.372.372H6.136a.371.371 0 0 1-.372-.372V7.757a.37.37 0 0 1 .372-.372h1.076a.75.75 0 0 1 .525.22l4.13 4.13a.18.18 0 0 0 .26 0l4.13-4.13c.14-.14.325-.22.525-.22h1.075a.37.37 0 0 1 .372.372z"/></svg>
