<?xml version="1.0" encoding="utf-8"?>
<svg xmlns="http://www.w3.org/2000/svg" xmlns:xlink="http://www.w3.org/1999/xlink" width="16" height="16" viewBox="0 0 10.76 10.77"><path d="M5.32.5c-1.03.13-2.06.35-3 .8-.38.2-.78.45-.93.87-.1.36.13.7.38.93.52.48 1.18.77 1.82 1.05l.36.16c-.6-.3-1.2-.65-1.63-1.17-.18-.2-.3-.54-.1-.78.24-.32.65-.44 1-.55.68-.2 1.4-.26 2.1-.32M5.2 10c1.1-.08 2.18-.32 3.14-.86.34-.2.7-.5.78-.9.05-.42-.24-.77-.55-1-.6-.5-1.36-.8-2.07-1.12a5.1 5.1 0 0 1 1.76 1.3c.14.2.2.5.01.7-.3.33-.74.43-1.15.53a12.3 12.3 0 0 1-1.92.24m.23-4.3c1-.07 2.03-.13 2.92-.63.37-.4.13-1.03-.25-1.32-.38-.3-.83-.5-1.2-.8.82.34 1.7.74 2.2 1.5.24.57-.2 1.18-.7 1.44-1.56.86-3.38.94-5.1 1.17-.5.08-1.08.2-1.4.64-.23.4.06.86.4 1.1.3.25.7.4 1 .65-.4-.1-.78-.34-1.13-.57-.36-.27-.72-.6-.86-1.04-.08-.68.5-1.23 1.1-1.47a8 8 0 0 1 3.05-.67z" fill="#231f20"/><g stroke="#000"><g stroke-width=".92"><path d="M5.32.37C2.7.65-1.12 1.93 3.46 3.9 5.86 4.9-2 1.92 5.3 1.5m-.2 8.34c2.62-.28 6.44-1.7 1.85-3.68-2.3-1 5.46 2.12-1.85 2.54" opacity="0"/><path d="M5.2 4.47c7.2-.42-.55-3.53 1.75-2.55 4.58 1.98.76 3.4-1.85 3.68h.22C-2 6.03 5.86 9 3.57 8c-4.7-1.98-.76-3.25 1.75-3.53" opacity="0"/></g><g stroke-width=".24"><path d="M3.28 3.82c-1.2-.54-1.83-1.05-1.94-1.54-.02-.1-.01-.26.03-.35.12-.28.4-.53.85-.76C2.9.83 3.97.55 5.1.4l.2-.02c0 0 .01.25.01.56v.56l-.43.03-.93.1c-1.5.22-2.1.64-1.72 1.24a3.6 3.6 0 0 0 1.27 1.01l.1.07c0 .01-.05-.01-.33-.13z" opacity="0"/><path d="M5.3.38a9.6 9.6 0 0 0-.2.02c-1.14.15-2.22.43-2.9.77-.46.23-.73.48-.85.76-.04.1-.05.25-.03.35.1.5.75 1 1.94 1.54l.33.13c0 0-.05-.03-.1-.07-.2-.1-.45-.27-.64-.4A2.9 2.9 0 0 1 2.32 3l-.04-.05-.04-.06c-.03-.04-.05-.08-.07-.12l-.02-.06c-.04-.12-.04-.24.01-.35 0 0 0 .03-.01.06s-.02.07-.02.1c0 .02 0 .02.02-.02.02-.07.06-.13.14-.22.26-.28.85-.5 1.77-.63.16-.03.2-.03.15-.04-.06-.01.33-.05.68-.08l.43-.03V.94.38zM4.12 1.6c.03 0 .02 0-.02.01-.03.01-.07.01-.1.01s-.02 0 0-.01l.08-.01h.02zm-.18.02c.03.01.02.01 0 .01s-.03 0-.02 0h.03zm-.1.02c.03 0-.01.01-.1.02l-.46.1c-.02 0 .08-.02.2-.05h.04l.1-.02.18-.03h.04zm-.6.12c-.04.02-.07.02-.05.01l.04-.01zm-.1.02c.01 0-.03.02-.08.03-.13.04-.15.04-.12.02.01 0 .03-.01.04-.02l.08-.02h.07zm-.24.07c.01 0-.04.02-.1.05l-.2.1-.1.04c.03-.03.08-.05.13-.07l.27-.1zm-.42.18c.01 0-.02.02-.07.05-.04.03-.1.08-.14.1-.03.03-.06.05-.06.04.03-.03.05-.06.1-.1l.06-.05c.03-.02.07-.04.1-.07z" opacity="0"/></g></g><head/><g fill="#231f20"><path d="M198.32-445.92c-113 12.98-289.85 71.3-78.6 162 103.17 45.36-250.55-90.72 78.6-116.64M193.4-11.72c113-12.98 289.86-77.77 78.6-168.5C168.85-225.58 522.57-83 193.4-63.57"/><use xlink:href="#B"/></g><g stroke="#000"><g stroke-width="41.94"><use xlink:href="#C" opacity="0"/><use xlink:href="#D" opacity="0"/><use xlink:href="#E" opacity="0"/></g><g stroke-width="10.81"><use xlink:href="#F" opacity="0"/><use xlink:href="#G" opacity="0"/></g></g><g fill="#231f20"><path d="M198.32-445.92c-113 12.98-289.85 71.3-78.6 162 103.17 45.36-250.55-90.72 78.6-116.64M193.4-11.72c113-12.98 289.86-77.77 78.6-168.5C168.85-225.58 522.57-83 193.4-63.57"/><use xlink:href="#B"/></g><g stroke="#000"><g stroke-width="41.94"><use xlink:href="#C" opacity="0"/><use xlink:href="#D" opacity="0"/><use xlink:href="#E" opacity="0"/></g><g stroke-width="10.81"><use xlink:href="#F" opacity="0"/><use xlink:href="#G" opacity="0"/></g></g><defs ><path id="B" d="M193.4-257.97c329.16-19.44-24.57-162 78.6-116.65 211.26 90.72 34.38 155.54-78.6 168.5h9.83C-125.9-186.7 222.9-50.6 119.73-95.96c-206.34-90.74-34.4-149.06 83.52-162"/><path id="C" d="M198.32-452.4c-117.9 12.96-289.85 71.3-83.5 162 108.08 45.36-245.64-90.72 83.5-110.16"/><path id="D" d="M188.5-18.2c117.9-12.96 289.85-77.75 83.52-168.5-103.17-45.36 245.64 97.2-83.52 116.64"/><path id="E" d="M193.4-264.45c324.25-19.46-24.57-162 78.6-116.65 206.33 90.72 34.38 155.52-83.52 168.5h9.8c-329.14 19.44 24.58 155.52-78.6 110.16-211.26-90.72-34.4-149.05 78.6-162"/><path id="F" d="M106.7-294.37c-53.63-24.72-82.62-48.13-87.3-70.47a34.5 34.5 0 0 1 1.27-16.11c5.2-12.96 17.45-24.12 38.26-34.8 30.04-15.44 78.56-28.6 129.92-35.26l8.93-1.1c.22 0 .4 11.53.4 25.62v25.62l-19.47 1.5c-14.33 1.1-28.62 2.7-42.03 4.66-67.95 9.97-94.34 29.37-77.5 57 8.46 13.9 29.82 31.2 57.08 46.26 2.82 1.56 5.13 2.94 5.13 3.06 0 .65-2.46-.36-14.67-5.98z"/><path id="G" d="M197.78-452.12c-.22 0-4.24.5-8.93 1.1-51.36 6.65-99.88 19.82-129.92 35.26-20.8 10.7-33.07 21.85-38.26 34.8-1.6 4-2.2 11.65-1.27 16.12 4.68 22.34 33.67 45.75 87.3 70.47 12.2 5.63 14.67 6.63 14.67 5.98 0-.12-2.3-1.5-5.13-3.06-9.27-5.12-20.34-12.2-28.73-18.28-10.33-7.63-18.7-15.27-24.3-22.3l-1.12-1.46-.76-1.02a54.9 54.9 0 0 1-1.79-2.65c-.01-.02-.02-.04-.04-.05a41.8 41.8 0 0 1-3-5.64c-.37-.85-.68-1.7-.96-2.53-1.88-5.7-1.7-11 .5-15.88.1.2-.15 1.43-.57 2.84-.43 1.46-.76 3.3-.74 4.07.03 1.13.18.95.73-.87 1-3.3 2.74-6 6.4-9.94 11.7-12.62 38.45-22.36 79.77-29.03 7.16-1.16 8.78-1.55 6.93-1.7-2.86-.24 15.04-2.3 30.4-3.5l19.2-1.5v-25.62c0-14.1-.18-25.62-.4-25.62zm-53.2 56.4c1.18.02.97.14-.8.47-1.32.24-3.12.43-4 .4-.9-.02-.7-.12.1-.3l3.74-.52c.33-.02.73-.06.96-.06zm-8.2 1.06c.32 0 .63.03.87.1.5.14.1.25-.93.25-.8 0-1.22-.07-1.12-.17l1.18-.18zm-4.6.76c1.47-.14-.57.34-4.53 1.07a602.4 602.4 0 0 0-13.66 2.72c-3.55.76-6.67 1.36-6.93 1.32-.83-.1 3.6-1.14 8.92-2.24l1.92-.4 4.4-.84 7.88-1.38c.75-.1 1.5-.22 2.02-.27zm-26.67 5.27c.86.01.8.1-.27.45-1.75.58-3.1.6-1.98.06l1.93-.47c.1-.01.23-.04.32-.04zm-4.1 1.14c.22-.03.36-.03.4 0 .12.13-1.76.8-4.18 1.47-5.75 1.62-6.88 1.86-5.2 1.1.42-.2 1.15-.44 1.93-.7l3.8-1.12a33.7 33.7 0 0 1 3.26-.76zm-11 3.17c.38.01-1.7.97-4.65 2.13a159.8 159.8 0 0 0-9.07 3.91l-4.13 2.02c-.22.1-.4.06-.4-.1 0-.04.07-.1.14-.16a80.4 80.4 0 0 1 5.92-3.03l.16-.07c3.58-1.65 7.57-3.2 11.96-4.68.02 0 .06-.01.08-.01zm-18.86 8.3c.24.01-.85.9-3 2.36-1.7 1.15-4.48 3.45-6.2 5.13-1.47 1.43-2.5 2.23-2.57 2.02 1.14-1.4 2.47-2.77 4-4.1.93-.78 1.9-1.57 2.87-2.3a56.8 56.8 0 0 1 4.66-3.04c.1-.05.2-.08.24-.08z"/></defs></svg>
