<?xml version="1.0" encoding="utf-8"?>
<svg xmlns="http://www.w3.org/2000/svg" width="15" height="14.9"><path d="M12.4 3.2c.6.2 1.1-.2 1.3-.7s-.2-1.1-.7-1.3-1.1.1-1.3.7c-.2.6.2 1.1.7 1.3zm2.5 5.3c.1-.3-.1-.6-.3-.7-.3-.1-.6.1-.6.3-.1.3.1.6.3.6.3.1.6-.1.7-.3zM9.2 1c.3.1.6-.1.7-.3S9.8 0 9.5 0s-.6.1-.7.3.1.6.3.7zm-7.4 9.3c-.3-.1-.6.1-.7.3-.1.3.1.6.3.6.3.1.6-.1.6-.3.1-.3-.1-.6-.3-.7zm9.3 2.5c-.4-.1-.7.1-.9.5s.1.7.5.9.7-.1.9-.5-.1-.7-.5-.9zm-7-10.5c.1-.5-.1-.9-.6-1.1s-.9.1-1.1.6.1.9.6 1.1c.5.2.9-.1 1.1-.6zm1.8 10.9c-.5-.2-.9.1-1.1.6s.1.9.6 1.1.9-.1 1.1-.6c.2-.5-.1-.9-.6-1.1zM.8 5c-.3-.1-.7.1-.8.4-.1.3.1.7.4.8s.7-.1.8-.4c.1-.3-.1-.7-.4-.8z"/><path d="M11.8 4.7c-.7-1.1-1.8-1.9-3.1-2.2-.4-.1-.8-.2-1.2-.2-.9 0-1.9.3-2.7.8-2.4 1.5-3.1 4.6-1.6 7.1.9 1.5 2.6 2.4 4.3 2.4.9 0 1.9-.3 2.7-.8 2.4-1.5 3.1-4.6 1.6-7.1zm-2 6.5c-.6.4-1.3.6-2 .6.6-.5 1.1-1.2 1.5-2.2l.4-.2 1.1-.7.1.9c0 .1 0 .2 0 .2 0 .1 0 .2-.1.2-.1.3-.6.8-1.1 1.1zM3.7 9.8l.2.1.3.1.6.2c.1.4.2.7.3 1-.6-.3-1.1-.8-1.5-1.4zm1.7-5.9h.3c.1 0 .2 0 .3.1l.3.1c-.3.4-.5.8-.8 1.3-.4.9-.7 1.9-.8 2.9-.1.5 0 .9 0 1.4h-.1l-.3-.1-.3-.1-.2-.1c-.1 0-.2-.1-.2-.2s-.1-.1-.2-.2c-.2-.2-.3-.5-.3-.5-.4-1.6 0-3.2 1.2-4.3.2-.2.6-.4 1.1-.4zm5.7 1.1c.1.2.2.4.3.7l.1.4.1.4c0 .2 0 .3 0 .5l-.1.2c0 .1-.1.2-.1.2-.1.1-.1.2-.2.2-.1.1-.1.2-.2.2L11 8l-.5-.9c-.1-.1-.2-.3-.2-.4l-.2-.3c.1-1.1 0-2-.3-2.7.5.3 1 .8 1.4 1.4zm-3.9 6.3c-.3.2-.6.4-.9.3s-.6-.3-.7-.6c-.1-.3-.2-.5-.3-.8h.9c.2 0 .3 0 .4 0h.5L8 10c.1 0 .3-.1.4-.1-.3.6-.7 1.1-1.2 1.5zm-2-3c.1-1 .3-1.9.7-2.8.2-.5.5-1 .8-1.4l.7.4c.1.1.2.2.4.2l1.6 1.5c-.1 1-.3 1.9-.6 2.8l-.1.2-.7.2-1.3.2c-.1 0-.3 0-.4 0h-.8c-.1 0-.1 0-.2 0-.1-.5-.1-1 0-1.4zm4.8-1.3l.5.9c0 .1.1.2.1.3 0 0-.1 0-.1.1l-.3.2-.7.4c.2-.6.4-1.3.5-1.9zM8.5 3.2c.2.1.4.3.6.6.2.5.3 1.1.3 1.9l-.7-.6c-.1-.1-.2-.2-.4-.3L8 4.5c-.1-.1-.2-.2-.4-.2L7 3.9c.2-.2.3-.3.5-.5.3-.2.7-.3.9-.3h0zm-1.2-.1c-.2.2-.5.4-.7.7 0 0-.1 0-.1 0-.1 0-.2-.1-.4-.1h-.3-.3c.6-.3 1.2-.5 1.9-.5 0 0 0 0 0 0zm4.1 6.3l-.1-.4-.1-.5.2-.2c.1-.1.2-.2.2-.3l.2-.2c0 .6-.2 1.1-.4 1.6zM6.5 8c.3 0 .5-.2.5-.5s-.3-.6-.5-.6c-.3 0-.5.2-.5.5s.2.5.5.5z"/><head/></svg>
