<?xml version="1.0" encoding="utf-8"?>
<svg xmlns="http://www.w3.org/2000/svg" viewBox="0 0 341.8 341.8"><ellipse cx="170.9" cy="170.035" rx="170.301" ry="170.95"/><path d="M284.434 170.035c0-13.796-11.154-24.993-24.898-24.993-6.772 0-12.748 2.6-17.13 6.998-16.93-12.196-40.434-20.194-66.328-21.194l11.353-53.384 36.85 7.798c.398 9.397 8.166 16.995 17.727 16.995 9.76 0 17.727-7.998 17.727-17.795s-7.967-17.795-17.727-17.795c-6.97 0-12.947 4-15.735 9.997l-41.23-8.797c-1.195-.2-2.4 0-3.386.6s-1.593 1.6-1.992 2.8l-12.548 59.583c-26.49.8-50.194 8.597-67.324 21.194-4.382-4.2-10.557-6.998-17.13-6.998-13.744 0-24.898 11.197-24.898 24.993 0 10.197 5.975 18.795 14.74 22.793-.398 2.4-.598 5-.598 7.598 0 38.39 44.418 69.38 99.392 69.38s99.392-30.99 99.392-69.38c0-2.6-.2-5-.598-7.398 8.166-4 14.34-12.796 14.34-22.993zm-170.3 17.795c0-9.797 7.967-17.795 17.727-17.795s17.727 7.998 17.727 17.795-7.967 17.795-17.727 17.795-17.727-7.998-17.727-17.795zm98.994 46.986c-12.15 12.196-35.255 12.996-42.027 12.996s-30.077-1-42.027-12.996c-1.793-1.8-1.793-4.8 0-6.598a4.68 4.68 0 0 1 6.573 0c7.57 7.598 23.902 10.397 35.654 10.397s27.886-2.8 35.654-10.397a4.68 4.68 0 0 1 6.573 0c1.394 2 1.394 4.8-.398 6.598zm-3.187-29.19c-9.76 0-17.727-7.998-17.727-17.795s7.967-17.795 17.727-17.795 17.727 7.998 17.727 17.795-7.967 17.795-17.727 17.795z" fill="#fff"/></svg>
