<?xml version="1.0" encoding="utf-8"?>
<svg xmlns="http://www.w3.org/2000/svg" width="16" height="16.15"><path d="M7.536 16.143C4.497 16 1.683 13.932.58 11.103-.63 8.166.092 4.55 2.377 2.334 4.557.087 8.118-.628 11 .586c3.024 1.2 5.114 4.38 4.994 7.634.006 3.32-2.29 6.478-5.442 7.512-.97.335-1.994.45-3.016.41zm1.085-1.763c.09-.542-1.052-.224-1.298-.763-1.16-1.134-1.415-2.85-1.524-4.398-.042-2.013-.07-4.197 1.067-5.95.392-.602 1.054-1.023 1.78-1.048.024-.583-1.003-.11-1.368-.163-2.434.412-4.6 2.357-5 4.833-.295 1.8.002 3.803 1.225 5.233 1.232 1.475 3.2 2.39 5.128 2.257zm1.127-.305a7.02 7.02 0 0 0 2.377-1.255l.027-3.9c.26-.145.616-.22.82-.408.08-.413-.477-.15-.7-.223l-3.805.01c-.06.56 1.2.27.866 1.05l.01 4.83c.142-.02.28-.063.416-.103zm2.36-8.444l.013-2.266c-.74-.734-1.747-1.186-2.76-1.386-.02.66.833 1.273 1.162 1.9l1.313 1.785c.086-.013.204.033.272-.033z"/></svg>
