<?xml version="1.0" encoding="utf-8"?>
<svg xmlns="http://www.w3.org/2000/svg" width="15" height="9.6"><path d="M14.9 2c-.7-.5-1-.4-1-.4-1.2.5-1.6 2.4-1.6 2.4-.1.4-.7.4-1.2.3v-.1c-.3-.8-1.2-1.5-1.2-1.5-.3-.2-.3-.5-.3-.5.1-.2.1-.3.1-.3-.2-.5-2.2-.6-2.2-.6-.3 0-.3-.3-.3-.3.2-.1.2-.4.2-.4 0-.6-.7-.6-.8-.6s-.8 0-.8.6c0 0 0 .3.2.4 0 0 0 .3-.3.3 0 0-2.1.1-2.2.6 0 0-.1.2.1.3 0 0 0 .3-.3.5v.1c-.3-.4-1-1.1-2.1-.7 0 0-1 .3-1 1.8 0 0 0 1.4 1.4 2.4 0 0 .3.2.6.4.2.7.6 1.4 1.5 1.9 0 0 .2.2.2.5 0 0 .7.5 2.6.5h.5c1.9 0 2.6-.5 2.6-.5 0-.3.2-.5.2-.5.7-.4 1.1-1 1.3-1.5 2.3-.4 2.6-3.2 2.6-3.2.2-1.5 1.2-1.6 1.2-1.6.4 0 .2-.3.2-.3zM1.2 5.5s-.9-1-.7-2c0 0 .1-.8.9-1 0 0 1-.1 1.1.8h0c-.2.2-.4.6-.5.9 0 0-.2.8-.2 1.7-.2-.1-.5-.3-.7-.5z"/><path d="M14.9 2c-.5-.6-1.5-.4-1.8.3-.4.6-.6 1.3-.8 1.9-.6.6-1.4 0-1.5-.7-.3-.6-1.1-.8-1.1-1.5-.1-.7-1-.6-1.6-.7-.6.1-1.1-.2-.7-.8C7.2-.2 6-.2 5.8.4c0 .4.3.9-.4.9-.7.1-1.5 0-2 .6.2.5-.4 1.2-.7.5C2 1.6.4 2 .1 3.1-.3 4.4.5 5.9 1.7 6.5c.5.5.6 1.3 1.2 1.8.6.3.7 1.2 1.5 1.2 1.4.2 2.8.3 4.2 0 .8.1.8-.8 1.4-1 .6-.5.8-1.4 1.7-1.5 1.2-.6 1.7-2 1.8-3.2.1-.8.8-1.3 1.4-1.5v-.1l-.1-.1zM1.2 5.5C.6 4.8.2 3.7.8 2.9c.5-.7 1.7-.4 1.8.4C1.9 4 1.8 5 1.8 6c-.2-.1-.5-.3-.7-.5z"/></svg>
