<?xml version="1.0" encoding="UTF-8"?>
<svg viewBox="0 0 40 40" xmlns="http://www.w3.org/2000/svg" xmlns:xlink="http://www.w3.org/1999/xlink"><defs><path id="f" d="M.2 0h199.6v39.9H.2z"/></defs><clipPath id="e"><use overflow="visible" xlink:href="#f"/></clipPath><path d="M37.4 6.2h-5.2L28.4 28 24 7.8c-.2-1.4-.8-1.6-2-1.6h-2.8c-1.2 0-1.8.4-2 1.6L12.8 28 9 6.2H3.4l5.4 26.2c.2 1.2.6 1.4 2 1.4h3.8c1.2 0 1.6-.2 2-1.4l4.2-19 4.2 19c.2 1.2.6 1.4 2 1.4h3.6c1.2 0 1.8-.2 2-1.4l4.8-26.2zm2.8 33.7H.2V0h39.9v39.9z" clip-path="url(#e)"/></svg>
