<?xml version="1.0" standalone="no"?>
<!DOCTYPE svg PUBLIC "-//W3C//DTD SVG 20010904//EN"
 "http://www.w3.org/TR/2001/REC-SVG-20010904/DTD/svg10.dtd">
<svg version="1.0" xmlns="http://www.w3.org/2000/svg"
 width="512.000000pt" height="512.000000pt" viewBox="0 0 512.000000 512.000000"
 preserveAspectRatio="xMidYMid meet">

<g transform="translate(0.000000,512.000000) scale(0.100000,-0.100000)"
fill="#000000" stroke="none">
<path d="M523 4715 c-65 -28 -67 -40 -73 -339 l-5 -270 -65 -18 c-36 -10 -122
-36 -192 -59 l-128 -40 0 -1644 0 -1645 35 0 c20 0 80 13 133 29 245 73 432
101 712 108 173 4 257 2 365 -11 410 -48 763 -167 1116 -376 135 -80 144 -80
297 8 293 168 625 282 982 337 141 22 474 31 625 16 205 -20 449 -68 584 -116
45 -15 107 -20 135 -9 15 6 16 160 16 1650 l0 1643 -107 35 c-60 19 -145 44
-190 56 l-83 22 0 277 c0 254 -2 278 -19 307 -31 50 -68 57 -234 45 -78 -6
-185 -18 -237 -27 -405 -64 -824 -249 -1162 -514 -110 -87 -319 -295 -399
-399 l-64 -83 -30 38 c-262 331 -548 567 -890 734 -299 145 -584 222 -919 250
-159 12 -164 12 -203 -5z m382 -241 c390 -65 770 -237 1080 -489 122 -99 294
-278 388 -403 l77 -103 0 -1324 0 -1324 -83 92 c-329 364 -792 633 -1277 742
-117 27 -310 55 -370 55 l-40 0 0 1391 0 1391 68 -6 c37 -4 108 -14 157 -22z
m3545 -1369 l0 -1395 -47 0 c-60 0 -271 -33 -383 -59 -463 -108 -902 -362
-1234 -713 l-106 -112 0 1327 0 1326 77 103 c42 57 138 164 212 238 274 273
551 444 916 566 170 57 420 110 533 113 l32 1 0 -1395z m-4000 -389 l0 -1154
30 -31 c33 -33 50 -36 215 -46 499 -30 950 -217 1333 -553 40 -36 71 -66 69
-68 -2 -2 -50 12 -108 31 -360 122 -801 181 -1154 155 -168 -13 -358 -40 -485
-70 -47 -11 -95 -22 -108 -25 l-22 -5 0 1428 0 1429 103 31 c56 17 108 31 115
31 9 1 12 -236 12 -1153z m4358 1118 l92 -27 0 -1429 c0 -1357 -1 -1429 -17
-1424 -111 33 -364 76 -533 91 -109 10 -418 7 -540 -5 -220 -22 -461 -74 -669
-145 -58 -19 -106 -33 -108 -31 -7 6 122 120 217 190 353 263 753 407 1208
435 161 9 187 20 209 82 9 26 12 316 12 1167 1 1074 2 1133 19 1128 9 -2 59
-17 110 -32z"/>
</g>
</svg>
