<svg width="131" height="42" viewBox="0 0 131 42" fill="none" xmlns="http://www.w3.org/2000/svg">
<path d="M0.5 0.5H116C124.008 0.5 130.5 6.99187 130.5 15V41.5H15C6.99187 41.5 0.5 35.0081 0.5 27V0.5Z" fill="white" stroke="black"/>
<path d="M94.5114 19H100.204V21.2505H98.795V29.9833H100.204V32.2338H94.5114V29.9833H96.1066V21.2505H94.5114V19Z" fill="black"/>
<path fill-rule="evenodd" clip-rule="evenodd" d="M108.414 19H105.357L100.735 32.2308H103.564L104.46 29.511H109.231L110.066 32.2308H113L108.414 19ZM108.475 27.2311H105.19L106.859 22.0249L108.475 27.2311Z" fill="black"/>
<path fill-rule="evenodd" clip-rule="evenodd" d="M56.5291 23.475C57.3457 24.521 57.7541 25.7575 57.7541 27.1844C57.7541 28.6355 57.3457 29.8781 56.5291 30.912C55.7124 31.9399 54.4726 32.4538 52.8096 32.4538C51.1467 32.4538 49.9069 31.9399 49.0902 30.912C48.2735 29.8781 47.8651 28.6355 47.8651 27.1844C47.8651 25.7575 48.2735 24.521 49.0902 23.475C49.9069 22.429 51.1467 21.906 52.8096 21.906C54.4726 21.906 55.7124 22.429 56.5291 23.475ZM52.8007 24.0917C52.061 24.0917 51.4899 24.3608 51.0875 24.8989C50.691 25.431 50.4927 26.1928 50.4927 27.1844C50.4927 28.176 50.691 28.9409 51.0875 29.479C51.4899 30.0171 52.061 30.2862 52.8007 30.2862C53.5405 30.2862 54.1086 30.0171 54.5051 29.479C54.9016 28.9409 55.0999 28.176 55.0999 27.1844C55.0999 26.1928 54.9016 25.431 54.5051 24.8989C54.1086 24.3608 53.5405 24.0917 52.8007 24.0917Z" fill="black"/>
<path d="M42.5361 24.1371C41.678 24.1371 41.0892 24.5089 40.7696 25.2526C40.6039 25.6456 40.5211 26.1475 40.5211 26.7582V32.1092H38V22.2415H40.4412V23.6836C40.7667 23.1757 41.0744 22.8099 41.3644 22.5862C41.8852 22.1871 42.545 21.9876 43.3439 21.9876C44.3441 21.9876 45.1608 22.2566 45.794 22.7948C46.4331 23.3268 46.7527 24.2126 46.7527 25.4521V32.1092H44.1606V26.0961C44.1606 25.5761 44.0926 25.177 43.9564 24.8989C43.7079 24.391 43.2344 24.1371 42.5361 24.1371Z" fill="black"/>
<path fill-rule="evenodd" clip-rule="evenodd" d="M72.6376 27.0393C72.6376 25.3887 72.247 24.1371 71.4658 23.2845C70.6787 22.432 69.72 22.0057 68.5897 22.0057C67.8144 22.0057 67.1457 22.2264 66.5835 22.6678C66.2757 22.9157 65.9858 23.2543 65.7135 23.6836V22.2234H63.2901V36H65.7934V30.8485C66.0597 31.2657 66.332 31.5831 66.6101 31.8008C67.119 32.1938 67.7582 32.3903 68.5275 32.3903C69.7348 32.3903 70.7201 31.9338 71.4836 31.0208C72.2529 30.1078 72.6376 28.7807 72.6376 27.0393ZM69.5129 25.1438C69.8561 25.7303 70.0277 26.4044 70.0277 27.1663C70.0277 28.0914 69.8413 28.8321 69.4685 29.3883C69.1016 29.9446 68.566 30.2227 67.8618 30.2227C67.3765 30.2227 66.9563 30.0867 66.6012 29.8146C66.0035 29.349 65.7047 28.5418 65.7047 27.393C65.7047 26.6675 65.7934 26.0689 65.971 25.5973C66.3142 24.7084 66.9445 24.264 67.8618 24.264C68.6252 24.264 69.1755 24.5573 69.5129 25.1438Z" fill="black"/>
<path fill-rule="evenodd" clip-rule="evenodd" d="M81.908 23.475C82.7246 24.521 83.133 25.7575 83.133 27.1844C83.133 28.6355 82.7246 29.8781 81.908 30.912C81.0913 31.9399 79.8515 32.4538 78.1885 32.4538C76.5256 32.4538 75.2857 31.9399 74.4691 30.912C73.6524 29.8781 73.244 28.6355 73.244 27.1844C73.244 25.7575 73.6524 24.521 74.4691 23.475C75.2857 22.429 76.5256 21.906 78.1885 21.906C79.8515 21.906 81.0913 22.429 81.908 23.475ZM78.1796 24.0917C77.4399 24.0917 76.8688 24.3608 76.4664 24.8989C76.0699 25.431 75.8716 26.1928 75.8716 27.1844C75.8716 28.176 76.0699 28.9409 76.4664 29.479C76.8688 30.0171 77.4399 30.2862 78.1796 30.2862C78.9194 30.2862 79.4875 30.0171 79.884 29.479C80.2805 28.9409 80.4788 28.176 80.4788 27.1844C80.4788 26.1928 80.2805 25.431 79.884 24.8989C79.4875 24.3608 78.9194 24.0917 78.1796 24.0917Z" fill="black"/>
<path d="M87.1305 25.6245C87.4796 24.9473 88.1631 24.6087 89.181 24.6087C89.258 24.6087 89.3586 24.6117 89.4828 24.6177C89.6071 24.6238 89.7492 24.6359 89.9089 24.654V22.0057C89.7965 21.9997 89.7225 21.9966 89.687 21.9966C89.6574 21.9906 89.619 21.9876 89.5716 21.9876C88.8141 21.9876 88.1986 22.1901 87.7252 22.5952C87.4352 22.8371 87.0949 23.2875 86.7044 23.9466V22.2234H84.2898V32.1092H86.8375V27.3839C86.8375 26.5919 86.9352 26.0054 87.1305 25.6245Z" fill="black"/>
<path d="M90.6312 8H89.7816V14.9784H90.6312V12.2893C90.6312 11.6139 90.7744 11.1546 91.0608 10.9116C91.3472 10.6686 91.6666 10.5471 92.019 10.5471C92.4438 10.5471 92.7333 10.6859 92.8875 10.9637C92.9819 11.1373 93.0291 11.4103 93.0291 11.7827V14.9784H93.9024V11.7259C93.9024 11.2272 93.8316 10.8374 93.69 10.5565C93.4288 10.0421 92.9316 9.78484 92.1984 9.78484C91.7893 9.78484 91.4479 9.8748 91.1741 10.0547C91.0136 10.1589 90.8326 10.3388 90.6312 10.5944V8Z" fill="black"/>
<path d="M95.4576 13.274V9.90794H94.5891V13.3545C94.5891 13.7869 94.6599 14.1325 94.8015 14.3914C95.0627 14.8743 95.5536 15.1157 96.2742 15.1157C96.7368 15.1157 97.1302 14.9831 97.4543 14.718C97.6179 14.5855 97.7548 14.4229 97.865 14.2304L97.8555 14.9784H98.658V9.90794H97.8083V12.3982C97.8083 12.8937 97.7501 13.2835 97.6337 13.5676C97.4197 14.0978 97.0169 14.3629 96.4253 14.3629C96.013 14.3629 95.7314 14.2114 95.5804 13.9084C95.4985 13.7443 95.4576 13.5329 95.4576 13.274Z" fill="black"/>
<path d="M99.3789 9.90796H100.219V10.6276C100.42 10.3782 100.603 10.1968 100.767 10.0831C101.047 9.8906 101.365 9.79434 101.72 9.79434C102.123 9.79434 102.447 9.89376 102.692 10.0926C102.831 10.2062 102.957 10.3735 103.07 10.5944C103.259 10.323 103.481 10.1226 103.736 9.99318C103.991 9.86062 104.277 9.79434 104.595 9.79434C105.274 9.79434 105.737 10.0405 105.983 10.5329C106.115 10.798 106.181 11.1547 106.181 11.6029V14.9784H105.298V11.4561C105.298 11.1184 105.213 10.8864 105.043 10.7601C104.876 10.6339 104.672 10.5708 104.43 10.5708C104.096 10.5708 103.808 10.6828 103.566 10.9069C103.327 11.131 103.207 11.505 103.207 12.0289V14.9784H102.343V11.6691C102.343 11.3251 102.302 11.0742 102.22 10.9164C102.091 10.6797 101.851 10.5613 101.498 10.5613C101.177 10.5613 100.885 10.686 100.62 10.9353C100.359 11.1847 100.229 11.636 100.229 12.2893V14.9784H99.3789V9.90796Z" fill="black"/>
<path fill-rule="evenodd" clip-rule="evenodd" d="M110.05 11.6597C109.983 11.7985 109.853 11.8806 109.658 11.9059L108.303 12.0763C107.828 12.1363 107.444 12.2956 107.151 12.5545C106.859 12.8133 106.712 13.1778 106.712 13.6481C106.712 14.0773 106.86 14.4356 107.156 14.7228C107.455 15.0068 107.839 15.1489 108.308 15.1489C108.698 15.1489 109.055 15.0652 109.379 14.898C109.703 14.7307 109.952 14.5334 110.125 14.3062C110.153 14.5082 110.202 14.6644 110.271 14.7749C110.404 14.9832 110.616 15.0873 110.909 15.0873C111.028 15.0873 111.123 15.0826 111.192 15.0731C111.261 15.0637 111.362 15.04 111.494 15.0021V14.3724C111.44 14.3819 111.39 14.3898 111.343 14.3961C111.296 14.3993 111.253 14.4008 111.215 14.4008C111.099 14.4008 111.022 14.374 110.984 14.3204C110.95 14.2667 110.932 14.1957 110.932 14.1073V11.1862C110.932 10.7065 110.748 10.353 110.38 10.1257C110.009 9.89849 109.526 9.78487 108.931 9.78487C108.418 9.78487 107.966 9.90796 107.576 10.1541C107.189 10.3972 106.988 10.8312 106.972 11.4561H107.765C107.796 11.1941 107.864 10.9969 107.968 10.8643C108.154 10.6244 108.468 10.5045 108.912 10.5045C109.296 10.5045 109.59 10.5708 109.795 10.7033C110.002 10.8327 110.106 11.0426 110.106 11.333C110.106 11.475 110.087 11.5839 110.05 11.6597ZM107.869 14.2115C107.689 14.0694 107.6 13.8753 107.6 13.6291C107.6 13.3041 107.73 13.0673 107.991 12.919C108.146 12.8306 108.377 12.7659 108.685 12.7249L109.2 12.6586C109.357 12.6397 109.518 12.6081 109.681 12.5639C109.845 12.5197 109.979 12.4645 110.083 12.3982V13.0847C110.083 13.6086 109.847 13.9858 109.375 14.2162C109.094 14.3551 108.805 14.4245 108.506 14.4245C108.261 14.4245 108.048 14.3535 107.869 14.2115Z" fill="black"/>
<path d="M111.846 9.90796H112.653V10.6276C112.892 10.3309 113.146 10.1179 113.413 9.98845C113.681 9.85904 113.978 9.79434 114.305 9.79434C115.023 9.79434 115.507 10.0453 115.759 10.5471C115.898 10.8217 115.967 11.2146 115.967 11.7259V14.9784H115.103V11.7828C115.103 11.4734 115.057 11.2241 114.966 11.0347C114.815 10.7191 114.541 10.5613 114.145 10.5613C113.943 10.5613 113.778 10.5818 113.649 10.6228C113.416 10.6923 113.212 10.8312 113.036 11.0395C112.894 11.2067 112.801 11.3803 112.757 11.5602C112.716 11.737 112.696 11.9911 112.696 12.3225V14.9784H111.846V9.90796Z" fill="black"/>
<path fill-rule="evenodd" clip-rule="evenodd" d="M118.727 9.73146C118.759 9.73146 118.791 9.73243 118.822 9.7343C119.453 9.7631 119.958 10.0124 120.382 10.4822C120.834 10.9826 121 11.6823 121 12.5812C121 13.3144 120.794 13.9264 120.382 14.4173C119.97 14.905 119.418 15.1488 118.726 15.1488L118.693 15.1486L118.663 15.1488C117.971 15.1488 117.419 14.905 117.007 14.4173C116.595 13.9264 116.389 13.3144 116.389 12.5812C116.389 11.6823 116.556 10.9826 117.007 10.4822C117.407 10.0385 117.913 9.7915 118.496 9.74114C118.559 9.73481 118.625 9.73148 118.696 9.73148L118.71 9.73151L118.727 9.73146ZM117.576 11.3046C117.817 10.7743 118.153 10.5065 118.71 10.5013C119.268 10.5059 119.572 10.7737 119.814 11.3046C119.972 11.652 120.051 12.0808 120.051 12.5908C120.051 13.104 119.939 13.5359 119.715 13.8865C119.497 14.2279 119.156 14.4031 118.695 14.4121C118.233 14.4031 117.893 14.2279 117.675 13.8865C117.45 13.5359 117.338 13.104 117.338 12.5908C117.338 12.0808 117.417 11.652 117.576 11.3046Z" fill="black"/>
<path fill-rule="evenodd" clip-rule="evenodd" d="M65.1174 9.93164H65.9435V10.6039C66.1134 10.3735 66.2991 10.1952 66.5005 10.0689C66.7868 9.87956 67.1235 9.78487 67.5106 9.78487C68.0833 9.78487 68.5695 10.0058 68.9691 10.4477C69.3688 10.8864 69.5686 11.5145 69.5686 12.3319C69.5686 13.4366 69.2807 14.2257 68.7048 14.6991C68.3398 14.999 67.915 15.1489 67.4303 15.1489C67.0496 15.1489 66.7302 15.0652 66.4721 14.898C66.3211 14.8033 66.1527 14.6407 65.9671 14.4103V17H65.1174V9.93164ZM67.3171 14.4056C67.7136 14.4056 68.0424 14.2399 68.3036 13.9085C68.5679 13.5739 68.7001 13.0752 68.7001 12.4124C68.7001 12.0084 68.6419 11.6612 68.5254 11.3709C68.3052 10.8122 67.9024 10.5329 67.3171 10.5329C66.7286 10.5329 66.3258 10.828 66.1087 11.4182C65.9922 11.7338 65.934 12.1347 65.934 12.6207C65.934 13.0121 65.9922 13.3451 66.1087 13.6197C66.329 14.1436 66.7318 14.4056 67.3171 14.4056Z" fill="black"/>
<path d="M74.8078 9.90797H75.6149V10.7838C75.681 10.6134 75.8431 10.4066 76.1011 10.1636C76.3592 9.91743 76.6565 9.79434 76.9933 9.79434C77.009 9.79434 77.0357 9.79592 77.0735 9.79908C77.1113 9.80223 77.1758 9.80854 77.267 9.81801V10.7175C77.2167 10.7081 77.1695 10.7018 77.1254 10.6986C77.0845 10.6954 77.0389 10.6939 76.9885 10.6939C76.5606 10.6939 76.2317 10.8327 76.002 11.1105C75.7723 11.3851 75.6574 11.7023 75.6574 12.0621V14.9784H74.8078V9.90797Z" fill="black"/>
<path d="M84.4222 9.90789H83.6151V14.9784H84.4647V12.3224C84.4647 11.991 84.4852 11.7369 84.5261 11.5602C84.5701 11.3803 84.663 11.2067 84.8046 11.0394C84.9808 10.8311 85.1853 10.6922 85.4182 10.6228C85.5472 10.5817 85.7124 10.5612 85.9138 10.5612C86.3103 10.5612 86.5841 10.719 86.7352 11.0347C86.8264 11.224 86.8721 11.4734 86.8721 11.7827V14.9784H87.7359V11.7259C87.7359 11.2146 87.6666 10.8216 87.5282 10.547C87.2764 10.0452 86.7918 9.79427 86.0743 9.79427C85.7471 9.79427 85.4497 9.85897 85.1822 9.98838C84.9147 10.1178 84.6614 10.3308 84.4222 10.6275V9.90789Z" fill="black"/>
<path d="M79.7618 13.274V9.90789H78.8933V13.3545C78.8933 13.7869 78.9641 14.1325 79.1057 14.3913C79.3669 14.8742 79.8578 15.1157 80.5784 15.1157C81.041 15.1157 81.4344 14.9831 81.7585 14.718C81.9221 14.5854 82.059 14.4229 82.1692 14.2303L82.1597 14.9784H82.9622V9.90789H82.1125V12.3982C82.1125 12.8937 82.0543 13.2835 81.9379 13.5675C81.7239 14.0978 81.3211 14.3629 80.7295 14.3629C80.3173 14.3629 80.0356 14.2114 79.8846 13.9084C79.8028 13.7443 79.7618 13.5328 79.7618 13.274Z" fill="black"/>
<path d="M55.2315 9.93161H56.1273V14.9784H55.2315V9.93161Z" fill="black"/>
<path d="M55.2315 8.02367H56.1273V8.98948H55.2315V8.02367Z" fill="black"/>
<path d="M49.905 9.76117C50.4957 9.76117 50.9754 9.90005 51.3441 10.1778C51.7161 10.4555 51.9396 10.9337 52.0147 11.6123H51.1581C51.1059 11.2998 50.9868 11.041 50.8008 10.8359C50.6148 10.6276 50.3162 10.5234 49.905 10.5234C49.3438 10.5234 48.9424 10.7885 48.7009 11.3188C48.5443 11.6628 48.466 12.0873 48.466 12.5923C48.466 13.1005 48.5769 13.5281 48.7988 13.8753C49.0207 14.2225 49.3699 14.3961 49.8463 14.3961C50.2118 14.3961 50.5006 14.2888 50.7127 14.0742C50.928 13.8564 51.0765 13.5597 51.1581 13.1841H52.0147C51.9168 13.8564 51.672 14.3487 51.2805 14.6612C50.8889 14.9705 50.388 15.1252 49.7778 15.1252C49.0925 15.1252 48.5459 14.8837 48.138 14.4008C47.7301 13.9148 47.5262 13.3088 47.5262 12.5828C47.5262 11.6928 47.7497 11 48.1968 10.5045C48.6438 10.0089 49.2132 9.76117 49.905 9.76117Z" fill="black"/>
<path d="M44.1165 14.041C43.9958 13.8895 43.9223 13.6717 43.8962 13.3877H43.0494C43.0723 13.8927 43.2452 14.3172 43.5683 14.6612C43.8946 15.0021 44.4477 15.1725 45.2276 15.1725C45.952 15.1725 46.4905 15.0084 46.8429 14.6801C47.1986 14.3519 47.3764 13.9621 47.3764 13.5108C47.3764 13.0436 47.2051 12.7012 46.8625 12.4834C46.6471 12.3445 46.2229 12.2009 45.5898 12.0526L45.0073 11.9153C44.7528 11.8553 44.5603 11.7859 44.4298 11.707C44.2046 11.5744 44.092 11.3977 44.092 11.1767C44.092 10.9747 44.1769 10.8122 44.3465 10.6891C44.5195 10.566 44.7724 10.5045 45.1052 10.5045C45.6045 10.5045 45.9553 10.6165 46.1576 10.8406C46.2816 10.9984 46.3518 11.1736 46.3681 11.3661H47.2002C47.2067 11.0379 47.1007 10.7317 46.882 10.4477C46.5329 9.99947 45.9634 9.77538 45.1738 9.77538C44.5701 9.77538 44.0888 9.92372 43.7298 10.2204C43.3741 10.5171 43.1963 10.9053 43.1963 11.385C43.1963 11.7922 43.3855 12.111 43.7641 12.3414C43.9762 12.4739 44.3058 12.5939 44.7528 12.7012L45.4528 12.8716C45.828 12.9632 46.0793 13.0436 46.2066 13.1131C46.4056 13.2267 46.5051 13.3924 46.5051 13.6102C46.5051 13.8974 46.3811 14.1104 46.1331 14.2493C45.8851 14.385 45.598 14.4529 45.2717 14.4529C44.7234 14.4529 44.3384 14.3156 44.1165 14.041Z" fill="black"/>
<path fill-rule="evenodd" clip-rule="evenodd" d="M41.5585 10.05C41.2093 9.87953 40.8488 9.79431 40.4767 9.79431C39.7393 9.79431 39.1421 10.0484 38.6853 10.5565C38.2284 11.0647 38 11.7259 38 12.5402C38 13.3672 38.2268 14.011 38.6804 14.4718C39.134 14.9295 39.6871 15.1583 40.3397 15.1583C40.6073 15.1583 40.8471 15.1331 41.0592 15.0826C41.4541 14.9942 41.7853 14.8238 42.0529 14.5713C42.2128 14.4261 42.3563 14.2399 42.4836 14.0126C42.6141 13.7822 42.6908 13.5739 42.7137 13.3877H41.8473C41.782 13.6118 41.6711 13.809 41.5144 13.9795C41.2403 14.273 40.8732 14.4198 40.4131 14.4198C39.9204 14.4198 39.5565 14.2651 39.3216 13.9558C39.0866 13.6433 38.961 13.2299 38.9447 12.7154H42.7871C42.7871 12.2041 42.761 11.8317 42.7088 11.5981C42.65 11.2572 42.5325 10.959 42.3563 10.7033C42.1736 10.435 41.9077 10.2172 41.5585 10.05ZM41.6319 11.1531C41.7624 11.374 41.8457 11.6691 41.8815 12.0384H38.9692C38.9855 11.6028 39.1307 11.2446 39.4048 10.9637C39.6789 10.6796 40.0183 10.5376 40.4229 10.5376C40.9874 10.5376 41.3904 10.7428 41.6319 11.1531Z" fill="black"/>
<path d="M53.256 9.90794H52.419V14.9784H53.3V12.0621C53.3 11.7022 53.4191 11.385 53.6574 11.1105C53.8956 10.8327 54.2366 10.6938 54.6804 10.6938C54.7326 10.6938 54.7799 10.6954 54.8223 10.6986C54.868 10.7017 54.9169 10.708 54.9692 10.7175V9.81798C54.8745 9.80852 54.8076 9.8022 54.7685 9.79905C54.7293 9.79589 54.7016 9.79431 54.6853 9.79431C54.3361 9.79431 54.0277 9.91741 53.7602 10.1636C53.4926 10.4066 53.3245 10.6134 53.256 10.7838V9.90794Z" fill="black"/>
<path d="M58.0294 8.49237H57.1385V9.90794H56.4288V10.6039H57.1385V13.9605C57.1385 14.2856 57.2119 14.5507 57.3588 14.7559C57.5056 14.9579 57.7846 15.0589 58.1958 15.0589C58.323 15.0589 58.4405 15.0526 58.5482 15.04C58.6592 15.0273 58.7652 15.0068 58.8664 14.9784V14.3061C58.8011 14.3124 58.744 14.3172 58.695 14.3203H58.558C58.3981 14.3203 58.2839 14.303 58.2154 14.2683C58.0914 14.2083 58.0294 14.0899 58.0294 13.9132V10.6039H58.8664V9.90794H58.0294V8.49237Z" fill="black"/>
<path fill-rule="evenodd" clip-rule="evenodd" d="M61.2182 9.7612C61.2505 9.7612 61.2821 9.76217 61.3131 9.76404C61.9441 9.79283 62.4495 10.0421 62.8733 10.5119C63.3248 11.0124 63.4912 11.712 63.4912 12.6109C63.4912 13.3441 63.2852 13.9561 62.8733 14.447C62.4613 14.9347 61.9093 15.1786 61.2172 15.1786L61.1838 15.1784L61.1545 15.1786C60.4624 15.1786 59.9104 14.9347 59.4984 14.447C59.0865 13.9561 58.8805 13.3441 58.8805 12.611C58.8805 11.712 59.0469 11.0124 59.4984 10.5119C59.8987 10.0683 60.4044 9.82123 60.9873 9.77087C61.0503 9.76454 61.1167 9.76122 61.187 9.76122L61.2011 9.76125L61.2182 9.7612ZM60.0669 11.3343C60.3084 10.804 60.6447 10.5362 61.2017 10.5311C61.7592 10.5357 62.063 10.8034 62.3048 11.3343C62.463 11.6818 62.5421 12.1105 62.5421 12.6205C62.5421 13.1337 62.43 13.5656 62.2059 13.9163C61.9877 14.2577 61.6477 14.4329 61.1858 14.4419C60.724 14.4329 60.384 14.2577 60.1658 13.9163C59.9417 13.5656 59.8296 13.1337 59.8296 12.6205C59.8296 12.1105 59.9087 11.6818 60.0669 11.3343Z" fill="black"/>
<path fill-rule="evenodd" clip-rule="evenodd" d="M72.2451 9.76404C72.2141 9.76217 72.1825 9.7612 72.1502 9.7612L72.1332 9.76125L72.1191 9.76122C72.0488 9.76122 71.9824 9.76454 71.9194 9.77087C71.3365 9.82123 70.8307 10.0683 70.4305 10.5119C69.979 11.0124 69.8125 11.712 69.8125 12.611C69.8125 13.3441 70.0185 13.9561 70.4305 14.447C70.8424 14.9347 71.3944 15.1786 72.0865 15.1786L72.1159 15.1784L72.1493 15.1786C72.8414 15.1786 73.3934 14.9347 73.8053 14.447C74.2173 13.9561 74.4233 13.3441 74.4233 12.6109C74.4233 11.712 74.2569 11.0124 73.8053 10.5119C73.3815 10.0421 72.8761 9.79283 72.2451 9.76404ZM72.1337 10.5311C71.5767 10.5362 71.2405 10.804 70.999 11.3343C70.8408 11.6818 70.7617 12.1105 70.7617 12.6205C70.7617 13.1337 70.8737 13.5656 71.0978 13.9163C71.316 14.2577 71.656 14.4329 72.1179 14.4419C72.5798 14.4329 72.9198 14.2577 73.138 13.9163C73.3621 13.5656 73.4741 13.1337 73.4741 12.6205C73.4741 12.1105 73.395 11.6818 73.2368 11.3343C72.9951 10.8034 72.6913 10.5357 72.1337 10.5311Z" fill="black"/>
<path d="M15.9606 24.1575C19.4266 26.9643 24.3836 26.9643 27.8497 24.1575L26.5095 22.5026C23.8248 24.6766 19.9854 24.6766 17.3007 22.5026L15.9606 24.1575Z" fill="black"/>
<path d="M17.404 20.5134V17.6365H19.5336V20.5134H17.404Z" fill="black"/>
<path d="M24.012 17.6365V20.5134H26.1415V17.6365H24.012Z" fill="black"/>
<path fill-rule="evenodd" clip-rule="evenodd" d="M33 21.5C33 27.8513 27.8513 33 21.5 33C15.1487 33 10 27.8513 10 21.5C10 15.1487 15.1487 10 21.5 10C27.8513 10 33 15.1487 33 21.5ZM30.8705 21.5C30.8705 26.6752 26.6752 30.8705 21.5 30.8705C16.3248 30.8705 12.1295 26.6752 12.1295 21.5C12.1295 16.3248 16.3248 12.1295 21.5 12.1295C26.6752 12.1295 30.8705 16.3248 30.8705 21.5Z" fill="black"/>
</svg>
