<svg viewBox="0 0 1210 446" xmlns="http://www.w3.org/2000/svg"><g fill="none" fill-rule="evenodd"><path fill="#FFF" d="M0 0h1210v446H0z"></path><g fill="#333" fill-rule="nonzero"><path d="M217.892 375.674h-2.653q-.076-.773-.658-1.202-.582-.428-1.579-.428-.677 0-1.144.189-.467.188-.713.52-.246.333-.246.755-.013.351.15.613.163.263.451.451.288.189.665.326.377.138.805.233l1.176.282q.857.191 1.573.511t1.24.786q.524.467.815 1.1.29.632.297 1.45-.006 1.202-.61 2.081-.604.88-1.74 1.362-1.134.482-2.732.482-1.585 0-2.758-.485-1.173-.486-1.828-1.442-.655-.955-.687-2.368h2.678q.045.658.38 1.096.336.438.902.659.565.22 1.281.22.704 0 1.224-.204.521-.205.81-.57.287-.364.287-.837 0-.44-.26-.741-.258-.3-.753-.512-.496-.21-1.212-.383l-1.425-.358q-1.656-.403-2.615-1.26-.958-.856-.952-2.307-.006-1.189.636-2.077.642-.889 1.767-1.387 1.125-.499 2.557-.499 1.458 0 2.548.499 1.09.498 1.697 1.387.607.888.626 2.058zm1.93 9.326v-13.09h3.413l3.605 8.795h.154l3.605-8.796h3.413V385h-2.685v-8.52h-.108l-3.388 8.456h-1.828l-3.388-8.489h-.109V385h-2.684zm21.905-10.1L238.44 385h-2.966l4.52-13.09h3.566l4.513 13.09h-2.966l-3.28-10.1h-.101zm-3.471 7.115v-2.16h7.005v2.16h-7.005zM257.923 385h-8.38v-13.09h2.768v10.808h5.612V385zm10.112 0h-8.38v-13.09h2.768v10.808h5.612V385zm15.557-9.326h-2.653q-.077-.773-.659-1.202-.581-.428-1.578-.428-.678 0-1.145.189-.466.188-.712.52-.246.333-.246.755-.013.351.15.613.163.263.45.451.288.189.665.326.377.138.806.233l1.176.282q.856.191 1.572.511.716.32 1.24.786.524.467.815 1.1.291.632.297 1.45-.006 1.202-.61 2.081-.604.88-1.739 1.362-1.134.482-2.732.482-1.585 0-2.758-.485-1.173-.486-1.828-1.442-.656-.955-.688-2.368h2.679q.044.658.38 1.096.336.438.901.659.566.22 1.282.22.703 0 1.224-.204.52-.205.809-.57.287-.364.287-.837 0-.44-.259-.741-.259-.3-.754-.512-.495-.21-1.211-.383l-1.426-.358q-1.655-.403-2.614-1.26-.959-.856-.952-2.307-.007-1.189.636-2.077.642-.889 1.767-1.387 1.125-.499 2.557-.499 1.457 0 2.547.499 1.09.498 1.697 1.387.607.888.627 2.058zm1.93-3.765h2.767V385h-2.768v-13.09zm13.14 0h2.755V385h-2.39l-5.695-8.24h-.096V385h-2.768v-13.09h2.429l5.65 8.232h.116v-8.233zm16.427 4.232h-2.812q-.134-.467-.377-.828-.243-.361-.592-.614-.348-.252-.792-.387-.444-.134-.981-.134-1.004 0-1.761.499-.758.498-1.18 1.448-.422.949-.422 2.317 0 1.368.416 2.326.415.96 1.176 1.461.76.502 1.796.502.94 0 1.608-.336.668-.335 1.023-.949.354-.614.354-1.451l.563.083h-3.375v-2.084h5.478v1.65q0 1.725-.729 2.962t-2.007 1.905q-1.278.668-2.928.668-1.84 0-3.234-.815-1.393-.815-2.17-2.32-.777-1.506-.777-3.577 0-1.591.464-2.84.463-1.25 1.3-2.12.838-.87 1.95-1.323 1.112-.454 2.41-.454 1.112 0 2.07.323.96.323 1.704.91.745.589 1.218 1.397.473.809.607 1.78zM325.565 385h-8.38v-13.09h2.768v10.808h5.612V385zm10.578 0h-8.846v-13.09h8.82v2.281h-6.053v3.12h5.6v2.281h-5.6v3.126h6.08V385zm2.173-6.456h5.97v2.16h-5.97v-2.16zm16.324 1.63v-8.265h2.768v8.502q0 1.431-.68 2.505-.681 1.074-1.902 1.672-1.221.597-2.845.597-1.63 0-2.85-.597-1.221-.598-1.899-1.672-.678-1.074-.678-2.505v-8.502h2.768v8.265q0 .748.33 1.33.329.581.93.914.6.332 1.4.332.805 0 1.402-.332.598-.333.927-.914.33-.582.33-1.33zm14.695-4.5h-2.653q-.076-.773-.658-1.202-.582-.428-1.579-.428-.677 0-1.144.189-.467.188-.713.52-.246.333-.246.755-.013.351.15.613.163.263.45.451.289.189.666.326.377.138.805.233l1.176.282q.857.191 1.573.511t1.24.786q.524.467.815 1.1.29.632.297 1.45-.006 1.202-.61 2.081-.605.88-1.74 1.362-1.134.482-2.732.482-1.585 0-2.758-.485-1.173-.486-1.828-1.442-.655-.955-.687-2.368h2.678q.045.658.38 1.096.336.438.902.659.565.22 1.281.22.703 0 1.224-.204.521-.205.809-.57.288-.364.288-.837 0-.44-.26-.741-.258-.3-.753-.512-.496-.21-1.212-.383l-1.425-.358q-1.656-.403-2.615-1.26-.958-.856-.952-2.307-.006-1.189.636-2.077.642-.889 1.767-1.387 1.125-.499 2.557-.499 1.458 0 2.547.499 1.09.498 1.698 1.387.607.888.626 2.058zM380.111 385h-8.846v-13.09h8.82v2.281h-6.053v3.12h5.6v2.281h-5.6v3.126h6.08V385z"></path><path></path><path d="M219.688 398.492h-2.8q-.076-.543-.313-.968-.236-.425-.607-.726-.37-.3-.853-.46-.483-.16-1.045-.16-1.017 0-1.771.502t-1.17 1.457q-.415.956-.415 2.318 0 1.4.418 2.352.42.952 1.173 1.438.755.486 1.745.486.557 0 1.033-.147.476-.147.847-.432.37-.284.617-.693.246-.41.341-.933l2.8.012q-.108.902-.54 1.736-.431.834-1.157 1.49-.725.654-1.726 1.035-1 .38-2.26.38-1.75 0-3.128-.793-1.378-.792-2.174-2.294-.795-1.503-.795-3.637 0-2.142.805-3.644.805-1.502 2.186-2.291 1.38-.79 3.107-.79 1.137 0 2.112.32.975.32 1.73.93.754.61 1.23 1.492t.61 2.02zM229.953 407h-8.38v-13.09h2.768v10.808h5.612V407zm9.818-4.826v-8.265h2.767v8.502q0 1.431-.68 2.505-.681 1.074-1.902 1.672-1.22.597-2.845.597-1.63 0-2.85-.597-1.221-.598-1.899-1.672-.677-1.074-.677-2.505v-8.502h2.767v8.265q0 .748.33 1.33.329.581.93.914.6.332 1.4.332.805 0 1.403-.332.597-.333.926-.914.33-.582.33-1.33zm14.694-4.5h-2.653q-.076-.773-.658-1.202-.582-.428-1.579-.428-.677 0-1.144.189-.467.188-.713.52-.246.333-.246.755-.013.351.15.613.163.263.451.451.288.189.665.326.377.138.805.233l1.176.282q.857.191 1.573.511t1.24.786q.524.467.815 1.1.29.632.297 1.45-.006 1.202-.61 2.081-.604.88-1.739 1.362-1.135.482-2.733.482-1.585 0-2.758-.485-1.173-.486-1.828-1.442-.655-.955-.687-2.368h2.678q.045.658.38 1.096.336.438.902.659.566.22 1.281.22.704 0 1.225-.204.52-.205.808-.57.288-.364.288-.837 0-.44-.26-.741-.258-.3-.753-.512-.496-.21-1.212-.383l-1.425-.358q-1.656-.403-2.614-1.26-.96-.856-.953-2.307-.006-1.189.636-2.077.643-.889 1.768-1.387 1.125-.499 2.556-.499 1.458 0 2.548.499 1.09.498 1.697 1.387.607.888.626 2.058zm5.44-1.483h-4.009v-2.282h10.752v2.282h-4.008V407h-2.736v-10.809zM277.167 407h-8.846v-13.09h8.82v2.281h-6.053v3.12h5.6v2.281h-5.6v3.126h6.08V407zm4.845 0h-2.768v-13.09h5.165q1.483 0 2.534.526 1.052.528 1.605 1.49.552.962.552 2.26 0 1.303-.562 2.24-.563.936-1.627 1.435-1.064.498-2.573.498h-3.458v-2.224h3.01q.794 0 1.318-.217.524-.218.783-.652.259-.435.259-1.08 0-.653-.26-1.1-.258-.448-.785-.68-.528-.234-1.327-.234h-1.866V407zm1.316-5.957h2.986l3.253 5.957h-3.055l-3.184-5.957zm17.38-3.369h-2.653q-.077-.773-.658-1.202-.582-.428-1.58-.428-.677 0-1.143.189-.467.188-.713.52-.246.333-.246.755-.013.351.15.613.163.263.45.451.288.189.665.326.378.138.806.233l1.176.282q.856.191 1.572.511.716.32 1.24.786.525.467.815 1.1.291.632.298 1.45-.007 1.202-.61 2.081-.605.88-1.74 1.362-1.134.482-2.732.482-1.585 0-2.758-.485-1.173-.486-1.828-1.442-.655-.955-.687-2.368h2.678q.045.658.38 1.096.336.438.901.659.566.22 1.282.22.703 0 1.224-.204.521-.205.809-.57.287-.364.287-.837 0-.44-.259-.741-.258-.3-.754-.512-.495-.21-1.211-.383l-1.426-.358q-1.655-.403-2.614-1.26-.959-.856-.952-2.307-.007-1.189.636-2.077.642-.889 1.767-1.387 1.125-.499 2.557-.499 1.457 0 2.547.499 1.09.498 1.697 1.387.608.888.627 2.058z"></path></g><g fill="#333" fill-rule="nonzero"><path d="M219.688 288.492h-2.8q-.076-.543-.313-.968-.236-.425-.607-.726-.37-.3-.853-.46-.483-.16-1.045-.16-1.017 0-1.771.502t-1.17 1.457q-.415.956-.415 2.318 0 1.4.418 2.352.42.952 1.173 1.438.755.486 1.745.486.557 0 1.033-.147.476-.147.847-.432.37-.284.617-.693.246-.41.341-.933l2.8.012q-.108.902-.54 1.736-.431.834-1.157 1.49-.725.654-1.726 1.035-1 .38-2.26.38-1.75 0-3.128-.793-1.378-.792-2.174-2.294-.795-1.503-.795-3.637 0-2.142.805-3.644.805-1.502 2.186-2.291 1.38-.79 3.107-.79 1.137 0 2.112.32.975.32 1.73.93.754.61 1.23 1.492t.61 2.02zM229.953 297h-8.38v-13.09h2.768v10.808h5.612V297zm9.818-4.826v-8.265h2.767v8.502q0 1.431-.68 2.505-.681 1.074-1.902 1.672-1.22.597-2.845.597-1.63 0-2.85-.597-1.221-.598-1.899-1.672-.677-1.074-.677-2.505v-8.502h2.767v8.265q0 .748.33 1.33.329.581.93.914.6.332 1.4.332.805 0 1.403-.332.597-.333.926-.914.33-.582.33-1.33zm14.694-4.5h-2.653q-.076-.773-.658-1.202-.582-.428-1.579-.428-.677 0-1.144.189-.467.188-.713.52-.246.333-.246.755-.013.351.15.613.163.263.451.451.288.189.665.326.377.138.805.233l1.176.282q.857.191 1.573.511t1.24.786q.524.467.815 1.1.29.632.297 1.45-.006 1.202-.61 2.081-.604.88-1.739 1.362-1.135.482-2.733.482-1.585 0-2.758-.485-1.173-.486-1.828-1.442-.655-.955-.687-2.368h2.678q.045.658.38 1.096.336.438.902.659.566.22 1.281.22.704 0 1.225-.204.52-.205.808-.57.288-.364.288-.837 0-.44-.26-.741-.258-.3-.753-.512-.496-.21-1.212-.383l-1.425-.358q-1.656-.403-2.614-1.26-.96-.856-.953-2.307-.006-1.189.636-2.077.643-.889 1.768-1.387 1.125-.499 2.556-.499 1.458 0 2.548.499 1.09.498 1.697 1.387.607.888.626 2.058zm5.44-1.483h-4.009v-2.282h10.752v2.282h-4.008V297h-2.736v-10.809zM277.167 297h-8.846v-13.09h8.82v2.281h-6.053v3.12h5.6v2.281h-5.6v3.126h6.08V297zm4.845 0h-2.768v-13.09h5.165q1.483 0 2.534.526 1.052.528 1.605 1.49.552.962.552 2.26 0 1.303-.562 2.24-.563.936-1.627 1.435-1.064.498-2.573.498h-3.458v-2.224h3.01q.794 0 1.318-.217.524-.218.783-.652.259-.435.259-1.08 0-.653-.26-1.1-.258-.448-.785-.68-.528-.234-1.327-.234h-1.866V297zm1.316-5.957h2.986l3.253 5.957h-3.055l-3.184-5.957zM297.793 297h-2.768v-13.09h5.165q1.49 0 2.538.565 1.048.565 1.601 1.566.553 1 .553 2.304 0 1.304-.563 2.301-.562.997-1.626 1.554-1.065.556-2.573.556h-3.292v-2.218h2.844q.8 0 1.32-.278.521-.278.78-.774.26-.495.26-1.14 0-.653-.26-1.142-.259-.489-.783-.76-.524-.272-1.33-.272h-1.866V297zm17.635 0h-8.846v-13.09h8.82v2.281h-6.053v3.12h5.6v2.281h-5.6v3.126h6.08V297zm4.845 0h-2.768v-13.09h5.165q1.483 0 2.534.526 1.052.528 1.604 1.49.553.962.553 2.26 0 1.303-.562 2.24-.563.936-1.627 1.435-1.064.498-2.573.498h-3.458v-2.224h3.01q.793 0 1.318-.217.524-.218.783-.652.258-.435.258-1.08 0-.653-.258-1.1-.26-.448-.787-.68-.527-.234-1.326-.234h-1.866V297zm1.316-5.957h2.985l3.254 5.957h-3.055l-3.184-5.957z"></path><path></path><path d="M213.68 308.9l-3.286 10.1h-2.966l4.52-13.09h3.566l4.513 13.09h-2.966l-3.279-10.1h-.102zm-3.471 7.115v-2.16h7.005v2.16h-7.005zM224.264 319h-2.768v-13.09h5.165q1.49 0 2.538.565 1.048.565 1.601 1.566.553 1 .553 2.304 0 1.304-.563 2.301-.562.997-1.626 1.554-1.065.556-2.573.556h-3.292v-2.218h2.844q.8 0 1.32-.278.521-.278.78-.774.26-.495.26-1.14 0-.653-.26-1.142-.259-.489-.783-.76-.524-.272-1.33-.272h-1.866V319zm11.556 0h-2.767v-13.09h5.164q1.49 0 2.538.565 1.048.565 1.601 1.566.553 1 .553 2.304 0 1.304-.562 2.301-.563.997-1.627 1.554-1.064.556-2.573.556h-3.292v-2.218h2.845q.799 0 1.32-.278.52-.278.78-.774.258-.495.258-1.14 0-.653-.259-1.142-.259-.489-.783-.76-.524-.272-1.33-.272h-1.866V319zm17.169 0h-8.38v-13.09h2.767v10.808h5.613V319zm1.731-13.09h2.768V319h-2.768v-13.09zm16.497 4.582h-2.8q-.076-.543-.313-.968-.236-.425-.607-.726-.37-.3-.853-.46-.483-.16-1.045-.16-1.017 0-1.771.502t-1.17 1.457q-.415.956-.415 2.318 0 1.4.418 2.352.42.952 1.173 1.438.755.486 1.745.486.557 0 1.033-.147.476-.147.847-.432.37-.284.617-.693.246-.41.342-.933l2.8.012q-.11.902-.54 1.736-.432.834-1.158 1.49-.725.654-1.726 1.035-1 .38-2.26.38-1.75 0-3.128-.793-1.378-.792-2.173-2.294-.796-1.503-.796-3.637 0-2.142.805-3.644.805-1.502 2.186-2.291 1.38-.79 3.107-.79 1.137 0 2.112.32.975.32 1.73.93.754.61 1.23 1.492t.61 2.02zm7.184-1.591L275.116 319h-2.966l4.519-13.09h3.567l4.512 13.09h-2.965l-3.28-10.1h-.102zm-3.47 7.114v-2.16h7.005v2.16h-7.006zm13.185-7.824h-4.007v-2.282h10.751v2.282h-4.008V319h-2.736v-10.809zm8.418-2.282h2.768V319h-2.768v-13.09zm16.976 6.546q0 2.14-.808 3.643-.809 1.502-2.199 2.292-1.39.789-3.122.789-1.745 0-3.133-.793-1.387-.792-2.192-2.294-.805-1.503-.805-3.637 0-2.142.805-3.644.805-1.502 2.192-2.291 1.387-.79 3.133-.79 1.732 0 3.122.79 1.39.789 2.199 2.291.808 1.502.808 3.644zm-2.806 0q0-1.388-.412-2.34t-1.16-1.445q-.748-.492-1.751-.492-1.004 0-1.752.492-.748.493-1.16 1.445-.412.952-.412 2.34 0 1.387.412 2.339t1.16 1.445q.748.492 1.752.492 1.003 0 1.75-.492.749-.493 1.161-1.445.412-.952.412-2.34zm12.944-6.546h2.755V319h-2.391l-5.695-8.24h-.096V319h-2.768v-13.09h2.429l5.65 8.232h.116v-8.233z"></path></g><g fill="#333" fill-rule="nonzero"><path d="M23.345 411v-13.09h3.413l3.605 8.795h.154l3.605-8.796h3.413V411H34.85v-8.52h-.108l-3.388 8.456h-1.828l-3.388-8.489h-.109V411h-2.684zm21.905-10.1L41.964 411h-2.966l4.52-13.09h3.566L51.597 411H48.63l-3.28-10.1h-.101zm-3.471 7.115v-2.16h7.005v2.16H41.78zm19.482-10.106h2.755V411h-2.39l-5.696-8.24h-.096V411h-2.768v-13.09h2.43l5.65 8.232h.115v-8.233zm8.942 8.463l-4.775-8.463h3.1l2.985 5.638h.128l2.985-5.638h3.1l-4.775 8.463V411h-2.748v-4.628z"></path><path></path><path d="M13.097 424.492h-2.8q-.076-.543-.313-.968-.236-.425-.607-.726-.37-.3-.853-.46-.483-.16-1.045-.16-1.017 0-1.771.502t-1.17 1.457q-.415.956-.415 2.318 0 1.4.418 2.352.42.952 1.173 1.438.755.486 1.745.486.557 0 1.033-.147.476-.147.847-.432.37-.284.617-.693.246-.41.341-.933l2.8.012q-.108.902-.54 1.736-.431.834-1.157 1.49-.725.654-1.726 1.035-1 .38-2.26.38-1.75 0-3.128-.793-1.378-.792-2.174-2.294-.795-1.503-.795-3.637 0-2.142.805-3.644.805-1.502 2.186-2.291 1.38-.79 3.107-.79 1.137 0 2.112.32.975.32 1.73.93.754.61 1.23 1.492t.61 2.02zM23.362 433h-8.38v-13.09h2.768v10.808h5.612V433zm9.818-4.826v-8.265h2.767v8.502q0 1.431-.68 2.505-.681 1.074-1.902 1.672-1.22.597-2.845.597-1.63 0-2.85-.597-1.221-.598-1.899-1.672-.677-1.074-.677-2.505v-8.502h2.767v8.265q0 .748.33 1.33.329.581.93.914.6.332 1.4.332.805 0 1.403-.332.597-.333.926-.914.33-.582.33-1.33zm14.694-4.5h-2.653q-.076-.773-.658-1.202-.582-.428-1.579-.428-.677 0-1.144.189-.467.188-.713.52-.246.333-.246.755-.013.351.15.613.163.263.451.451.288.189.665.326.377.138.805.233l1.176.282q.857.191 1.573.511t1.24.786q.524.467.815 1.1.29.632.297 1.45-.006 1.202-.61 2.081-.604.88-1.739 1.362-1.135.482-2.733.482-1.585 0-2.758-.485-1.173-.486-1.828-1.442-.655-.955-.687-2.368h2.678q.045.658.38 1.096.336.438.902.659.566.22 1.281.22.704 0 1.225-.204.52-.205.808-.57.288-.364.288-.837 0-.44-.26-.741-.258-.3-.753-.512-.496-.21-1.212-.383l-1.425-.358q-1.656-.403-2.614-1.26-.96-.856-.953-2.307-.006-1.189.636-2.077.643-.889 1.768-1.387 1.125-.499 2.556-.499 1.458 0 2.548.499 1.09.498 1.697 1.387.607.888.626 2.058zm5.44-1.483h-4.009v-2.282h10.752v2.282h-4.008V433h-2.736v-10.809zM70.576 433H61.73v-13.09h8.82v2.281h-6.053v3.12h5.6v2.281h-5.6v3.126h6.08V433zm4.845 0h-2.768v-13.09h5.165q1.483 0 2.534.526 1.052.528 1.605 1.49.552.962.552 2.26 0 1.303-.562 2.24-.563.936-1.627 1.435-1.064.498-2.573.498H74.29v-2.224h3.01q.794 0 1.318-.217.524-.218.783-.652.259-.435.259-1.08 0-.653-.26-1.1-.258-.448-.785-.68-.528-.234-1.327-.234h-1.866V433zm1.316-5.957h2.986L82.977 433h-3.055l-3.184-5.957zm17.38-3.369h-2.653q-.077-.773-.658-1.202-.582-.428-1.58-.428-.677 0-1.143.189-.467.188-.713.52-.246.333-.246.755-.013.351.15.613.163.263.45.451.288.189.665.326.378.138.806.233l1.176.282q.856.191 1.572.511.716.32 1.24.786.525.467.815 1.1.291.632.298 1.45-.007 1.202-.61 2.081-.605.88-1.74 1.362-1.134.482-2.732.482-1.585 0-2.758-.485-1.173-.486-1.828-1.442-.655-.955-.687-2.368h2.678q.045.658.38 1.096.336.438.901.659.566.22 1.282.22.703 0 1.224-.204.521-.205.809-.57.287-.364.287-.837 0-.44-.259-.741-.258-.3-.754-.512-.495-.21-1.211-.383l-1.426-.358q-1.655-.403-2.614-1.26-.959-.856-.952-2.307-.007-1.189.636-2.077.642-.889 1.767-1.387 1.125-.499 2.557-.499 1.457 0 2.547.499 1.09.498 1.697 1.387.608.888.627 2.058z"></path></g><g fill="#333" fill-rule="nonzero"><path d="M99.565 90h-2.768V76.91h8.667v2.281h-5.9v3.12h5.325v2.281h-5.324V90zm16.503 0h-8.847V76.91h8.822v2.281h-6.054v3.12h5.6v2.281h-5.6v3.126h6.08V90zm7.72 0h-2.697l-3.745-13.09h3.023l2.167 9.095h.109l2.39-9.096h2.59l2.383 9.115h.115l2.167-9.115h3.024L131.568 90h-2.697l-2.493-8.559h-.103L123.79 90z"></path><path></path><path d="M80.097 103.492h-2.8q-.076-.543-.313-.968-.236-.425-.607-.726-.37-.3-.853-.46-.483-.16-1.045-.16-1.017 0-1.771.502t-1.17 1.457q-.415.956-.415 2.318 0 1.4.418 2.352.42.952 1.173 1.438.755.486 1.745.486.557 0 1.033-.147.476-.147.847-.432.37-.284.617-.693.246-.41.341-.933l2.8.012q-.108.902-.54 1.736-.431.834-1.157 1.49-.725.654-1.726 1.035-1 .38-2.26.38-1.75 0-3.128-.793-1.378-.792-2.174-2.294-.795-1.503-.795-3.637 0-2.142.805-3.644.805-1.502 2.186-2.291 1.38-.79 3.107-.79 1.137 0 2.112.32.975.32 1.73.93.754.61 1.23 1.492t.61 2.02zM90.362 112h-8.38V98.91h2.768v10.808h5.612V112zm9.818-4.826v-8.265h2.767v8.502q0 1.431-.68 2.505-.681 1.074-1.902 1.672-1.22.597-2.845.597-1.63 0-2.85-.597-1.221-.598-1.899-1.672-.677-1.074-.677-2.505v-8.502h2.767v8.265q0 .748.33 1.33.329.581.93.914.6.332 1.4.332.805 0 1.403-.332.597-.333.926-.914.33-.582.33-1.33zm14.694-4.5h-2.653q-.076-.773-.658-1.202-.582-.428-1.579-.428-.677 0-1.144.189-.467.188-.713.52-.246.333-.246.755-.013.351.15.613.163.263.451.451.288.189.665.326.377.138.805.233l1.176.282q.857.191 1.573.511t1.24.786q.524.467.815 1.1.29.632.297 1.45-.006 1.202-.61 2.081-.604.88-1.739 1.362-1.135.482-2.733.482-1.585 0-2.758-.485-1.173-.486-1.828-1.442-.655-.955-.687-2.368h2.678q.045.658.38 1.096.336.438.902.659.566.22 1.281.22.704 0 1.225-.204.52-.205.808-.57.288-.364.288-.837 0-.44-.26-.741-.258-.3-.753-.512-.496-.21-1.212-.383l-1.425-.358q-1.656-.403-2.614-1.26-.96-.856-.953-2.307-.006-1.189.636-2.077.643-.889 1.768-1.387 1.125-.499 2.556-.499 1.458 0 2.548.499 1.09.498 1.697 1.387.607.888.626 2.058zm5.44-1.483h-4.009V98.91h10.752v2.282h-4.008V112h-2.736v-10.809zM137.576 112h-8.846V98.91h8.82v2.281h-6.053v3.12h5.6v2.281h-5.6v3.126h6.08V112zm4.845 0h-2.768V98.91h5.165q1.483 0 2.534.526 1.052.528 1.605 1.49.552.962.552 2.26 0 1.303-.562 2.24-.563.936-1.627 1.435-1.064.498-2.573.498h-3.458v-2.224h3.01q.794 0 1.318-.217.524-.218.783-.652.259-.435.259-1.08 0-.653-.26-1.1-.258-.448-.785-.68-.528-.234-1.327-.234h-1.866V112zm1.316-5.957h2.986l3.253 5.957h-3.055l-3.184-5.957zm17.38-3.369h-2.653q-.077-.773-.658-1.202-.582-.428-1.58-.428-.677 0-1.143.189-.467.188-.713.52-.246.333-.246.755-.013.351.15.613.163.263.45.451.288.189.665.326.378.138.806.233l1.176.282q.856.191 1.572.511.716.32 1.24.786.525.467.815 1.1.291.632.298 1.45-.007 1.202-.61 2.081-.605.88-1.74 1.362-1.134.482-2.732.482-1.585 0-2.758-.485-1.173-.486-1.828-1.442-.655-.955-.687-2.368h2.678q.045.658.38 1.096.336.438.901.659.566.22 1.282.22.703 0 1.224-.204.521-.205.809-.57.287-.364.287-.837 0-.44-.259-.741-.258-.3-.754-.512-.495-.21-1.211-.383l-1.426-.358q-1.655-.403-2.614-1.26-.959-.856-.952-2.307-.007-1.189.636-2.077.642-.889 1.767-1.387 1.125-.499 2.557-.499 1.457 0 2.547.499 1.09.498 1.697 1.387.608.888.627 2.058z"></path></g><g fill="#333" fill-rule="nonzero"><path d="M219.688 200.492h-2.8q-.076-.543-.313-.968-.236-.425-.607-.726-.37-.3-.853-.46-.483-.16-1.045-.16-1.017 0-1.771.502t-1.17 1.457q-.415.956-.415 2.318 0 1.4.418 2.352.42.952 1.173 1.438.755.486 1.745.486.557 0 1.033-.147.476-.147.847-.432.37-.284.617-.693.246-.41.341-.933l2.8.012q-.108.902-.54 1.736-.431.834-1.157 1.49-.725.654-1.726 1.035-1 .38-2.26.38-1.75 0-3.128-.793-1.378-.792-2.174-2.294-.795-1.503-.795-3.637 0-2.142.805-3.644.805-1.502 2.186-2.291 1.38-.79 3.107-.79 1.137 0 2.112.32.975.32 1.73.93.754.61 1.23 1.492t.61 2.02zM229.953 209h-8.38v-13.09h2.768v10.808h5.612V209zm9.818-4.826v-8.265h2.767v8.502q0 1.431-.68 2.505-.681 1.074-1.902 1.672-1.22.597-2.845.597-1.63 0-2.85-.597-1.221-.598-1.899-1.672-.677-1.074-.677-2.505v-8.502h2.767v8.265q0 .748.33 1.33.329.581.93.914.6.332 1.4.332.805 0 1.403-.332.597-.333.926-.914.33-.582.33-1.33zm14.694-4.5h-2.653q-.076-.773-.658-1.202-.582-.428-1.579-.428-.677 0-1.144.189-.467.188-.713.52-.246.333-.246.755-.013.351.15.613.163.263.451.451.288.189.665.326.377.138.805.233l1.176.282q.857.191 1.573.511t1.24.786q.524.467.815 1.1.29.632.297 1.45-.006 1.202-.61 2.081-.604.88-1.739 1.362-1.135.482-2.733.482-1.585 0-2.758-.485-1.173-.486-1.828-1.442-.655-.955-.687-2.368h2.678q.045.658.38 1.096.336.438.902.659.566.22 1.281.22.704 0 1.225-.204.52-.205.808-.57.288-.364.288-.837 0-.44-.26-.741-.258-.3-.753-.512-.496-.21-1.212-.383l-1.425-.358q-1.656-.403-2.614-1.26-.96-.856-.953-2.307-.006-1.189.636-2.077.643-.889 1.768-1.387 1.125-.499 2.556-.499 1.458 0 2.548.499 1.09.498 1.697 1.387.607.888.626 2.058zm5.44-1.483h-4.009v-2.282h10.752v2.282h-4.008V209h-2.736v-10.809zM277.167 209h-8.846v-13.09h8.82v2.281h-6.053v3.12h5.6v2.281h-5.6v3.126h6.08V209zm4.845 0h-2.768v-13.09h5.165q1.483 0 2.534.526 1.052.528 1.605 1.49.552.962.552 2.26 0 1.303-.562 2.24-.563.936-1.627 1.435-1.064.498-2.573.498h-3.458v-2.224h3.01q.794 0 1.318-.217.524-.218.783-.652.259-.435.259-1.08 0-.653-.26-1.1-.258-.448-.785-.68-.528-.234-1.327-.234h-1.866V209zm1.316-5.957h2.986l3.253 5.957h-3.055l-3.184-5.957zM297.793 209h-2.768v-13.09h5.165q1.49 0 2.538.565 1.048.565 1.601 1.566.553 1 .553 2.304 0 1.304-.563 2.301-.562.997-1.626 1.554-1.065.556-2.573.556h-3.292v-2.218h2.844q.8 0 1.32-.278.521-.278.78-.774.26-.495.26-1.14 0-.653-.26-1.142-.259-.489-.783-.76-.524-.272-1.33-.272h-1.866V209zm17.635 0h-8.846v-13.09h8.82v2.281h-6.053v3.12h5.6v2.281h-5.6v3.126h6.08V209zm4.845 0h-2.768v-13.09h5.165q1.483 0 2.534.526 1.052.528 1.604 1.49.553.962.553 2.26 0 1.303-.562 2.24-.563.936-1.627 1.435-1.064.498-2.573.498h-3.458v-2.224h3.01q.793 0 1.318-.217.524-.218.783-.652.258-.435.258-1.08 0-.653-.258-1.1-.26-.448-.787-.68-.527-.234-1.326-.234h-1.866V209zm1.316-5.957h2.985l3.254 5.957h-3.055l-3.184-5.957z"></path><path></path><path d="M216.984 231h-8.846v-13.09h8.82v2.281h-6.052v3.12h5.599v2.281h-5.6v3.126h6.08V231zm10.272-13.09h2.755V231h-2.391l-5.695-8.24h-.096V231h-2.768v-13.09h2.429l5.65 8.232h.116v-8.233zm4.224 0h3.075l3.164 9.945h.121l3.17-9.946h3.069L239.566 231h-3.567l-4.519-13.09zm14.068 0h2.768V231h-2.768v-13.09zm7.715 13.09h-2.768v-13.09h5.165q1.483 0 2.534.526 1.052.528 1.605 1.49.552.962.552 2.26 0 1.303-.562 2.24-.563.936-1.627 1.435-1.064.498-2.573.498h-3.458v-2.224h3.011q.793 0 1.317-.217.524-.218.783-.652.259-.435.259-1.08 0-.653-.26-1.1-.258-.448-.785-.68-.528-.234-1.327-.234h-1.866V231zm1.316-5.957h2.986l3.253 5.957h-3.055l-3.184-5.957zm19.655-.588q0 2.14-.808 3.643-.809 1.502-2.2 2.292-1.39.789-3.122.789-1.745 0-3.132-.793-1.387-.792-2.192-2.294-.806-1.503-.806-3.637 0-2.142.806-3.644.805-1.502 2.192-2.291 1.387-.79 3.132-.79 1.733 0 3.123.79 1.39.789 2.199 2.291.808 1.502.808 3.644zm-2.806 0q0-1.388-.412-2.34t-1.16-1.445q-.748-.492-1.752-.492-1.003 0-1.751.492-.748.493-1.16 1.445-.413.952-.413 2.34 0 1.387.413 2.339.412.952 1.16 1.445.748.492 1.751.492 1.004 0 1.752-.492.748-.493 1.16-1.445.412-.952.412-2.34zm12.943-6.546h2.755V231h-2.39l-5.696-8.24h-.096V231h-2.767v-13.09h2.429l5.65 8.232h.115v-8.233zM289.305 231v-13.09h3.414l3.605 8.795h.153l3.605-8.796h3.414V231h-2.685v-8.52h-.109l-3.387 8.456h-1.829l-3.387-8.489h-.11V231h-2.684zm25.21 0h-8.847v-13.09h8.821v2.281h-6.053v3.12h5.6v2.281h-5.6v3.126h6.079V231zm10.271-13.09h2.755V231h-2.39l-5.696-8.24h-.096V231h-2.768v-13.09h2.43l5.65 8.232h.115v-8.233zm8.443 2.281h-4.008v-2.282h10.752v2.282h-4.008V231h-2.736v-10.809z"></path></g><g fill="#333" fill-rule="nonzero"><path d="M216.518 127h-8.38v-13.09h2.768v10.808h5.612V127zm7.6-10.1l-3.286 10.1h-2.966l4.519-13.09h3.567l4.512 13.09H227.5l-3.28-10.1h-.102zm-3.472 7.115v-2.16h7.006v2.16h-7.006zM234.702 127h-2.768v-13.09h5.165q1.483 0 2.534.526 1.052.528 1.605 1.49.552.962.552 2.26 0 1.303-.562 2.24-.563.936-1.627 1.435-1.064.498-2.573.498h-3.458v-2.224h3.01q.794 0 1.318-.217.524-.218.783-.652.259-.435.259-1.08 0-.653-.26-1.1-.258-.448-.786-.68-.527-.234-1.326-.234h-1.866V127zm1.316-5.957h2.986l3.253 5.957h-3.055l-3.184-5.957zm19.118-2.902h-2.812q-.134-.467-.377-.828-.243-.361-.592-.614-.348-.252-.792-.386-.444-.135-.981-.135-1.004 0-1.761.499-.758.498-1.18 1.448-.422.949-.422 2.317 0 1.368.416 2.326.415.96 1.176 1.461.76.502 1.796.502.94 0 1.608-.336.668-.335 1.023-.949.354-.614.354-1.451l.563.083h-3.375v-2.084h5.478v1.65q0 1.725-.729 2.962t-2.007 1.905q-1.278.668-2.928.668-1.84 0-3.234-.815-1.393-.815-2.17-2.32-.777-1.506-.777-3.577 0-1.591.464-2.84.463-1.25 1.3-2.12.838-.87 1.95-1.323 1.112-.454 2.41-.454 1.112 0 2.07.323.96.323 1.704.91.745.589 1.218 1.397.473.809.607 1.78zM266.08 127h-8.847v-13.09h8.821v2.281H260v3.12h5.6v2.281H260v3.126h6.079V127zm15.902-9.326h-2.653q-.077-.773-.658-1.202-.582-.428-1.58-.428-.677 0-1.143.189-.467.188-.713.52-.246.333-.246.755-.013.351.15.613.163.263.45.451.288.189.665.326.378.138.806.233l1.176.282q.857.191 1.572.511.716.32 1.24.786.525.467.815 1.1.291.632.298 1.45-.007 1.202-.61 2.081-.605.88-1.74 1.362-1.134.482-2.732.482-1.585 0-2.758-.485-1.173-.486-1.828-1.442-.655-.955-.687-2.368h2.678q.045.658.38 1.096.336.438.901.659.566.22 1.282.22.703 0 1.224-.204.521-.205.809-.57.287-.364.287-.837 0-.44-.259-.741-.258-.3-.754-.512-.495-.21-1.211-.383l-1.425-.358q-1.656-.403-2.615-1.26-.959-.856-.952-2.307-.007-1.189.636-2.077.642-.889 1.767-1.387 1.125-.499 2.557-.499 1.457 0 2.547.499 1.09.498 1.697 1.387.608.888.627 2.058zm4.697 9.326h-2.768v-13.09h2.768v5.4h5.619v-5.4h2.761V127h-2.761v-5.408h-5.619V127zm16.101-10.1l-3.286 10.1h-2.965l4.519-13.09h3.566l4.513 13.09h-2.966l-3.279-10.1h-.102zm-3.47 7.115v-2.16h7.005v2.16h-7.006zM313.362 127h-2.767v-13.09h5.164q1.483 0 2.535.526 1.051.528 1.604 1.49.553.962.553 2.26 0 1.303-.562 2.24-.563.936-1.627 1.435-1.064.498-2.573.498h-3.458v-2.224h3.01q.793 0 1.318-.217.524-.218.783-.652.258-.435.258-1.08 0-.653-.258-1.1-.26-.448-.787-.68-.527-.234-1.326-.234h-1.867V127zm1.317-5.957h2.985L320.92 127h-3.056l-3.183-5.957zM331.152 127h-8.847v-13.09h8.821v2.281h-6.053v3.12h5.6v2.281h-5.6v3.126h6.079V127zm6.717 0h-4.64v-13.09h4.678q1.976 0 3.401.782 1.425.783 2.196 2.247.77 1.464.77 3.503 0 2.045-.77 3.515-.77 1.47-2.206 2.257-1.435.786-3.429.786zm-1.873-10.72v8.349h1.758q1.227 0 2.068-.438.84-.438 1.266-1.362.425-.923.425-2.387 0-1.451-.425-2.372-.426-.92-1.263-1.355-.837-.434-2.065-.434h-1.764z"></path><path></path><path d="M219.688 140.492h-2.8q-.076-.543-.313-.968-.236-.425-.607-.726-.37-.3-.853-.46-.483-.16-1.045-.16-1.017 0-1.771.502t-1.17 1.457q-.415.956-.415 2.318 0 1.4.418 2.352.42.952 1.173 1.438.755.486 1.745.486.557 0 1.033-.147.476-.147.847-.432.37-.284.617-.693.246-.41.341-.933l2.8.012q-.108.902-.54 1.736-.431.834-1.157 1.49-.725.654-1.726 1.035-1 .38-2.26.38-1.75 0-3.128-.793-1.378-.792-2.174-2.294-.795-1.503-.795-3.637 0-2.142.805-3.644.805-1.502 2.186-2.291 1.38-.79 3.107-.79 1.137 0 2.112.32.975.32 1.73.93.754.61 1.23 1.492t.61 2.02zM229.953 149h-8.38v-13.09h2.768v10.808h5.612V149zm9.818-4.826v-8.265h2.767v8.502q0 1.431-.68 2.505-.681 1.074-1.902 1.672-1.22.597-2.845.597-1.63 0-2.85-.597-1.221-.598-1.899-1.672-.677-1.074-.677-2.505v-8.502h2.767v8.265q0 .748.33 1.33.329.581.93.914.6.332 1.4.332.805 0 1.403-.332.597-.333.926-.914.33-.582.33-1.33zm14.694-4.5h-2.653q-.076-.773-.658-1.202-.582-.428-1.579-.428-.677 0-1.144.189-.467.188-.713.52-.246.333-.246.755-.013.351.15.613.163.263.451.451.288.189.665.326.377.138.805.233l1.176.282q.857.191 1.573.511t1.24.786q.524.467.815 1.1.29.632.297 1.45-.006 1.202-.61 2.081-.604.88-1.739 1.362-1.135.482-2.733.482-1.585 0-2.758-.485-1.173-.486-1.828-1.442-.655-.955-.687-2.368h2.678q.045.658.38 1.096.336.438.902.659.566.22 1.281.22.704 0 1.225-.204.52-.205.808-.57.288-.364.288-.837 0-.44-.26-.741-.258-.3-.753-.512-.496-.21-1.212-.383l-1.425-.358q-1.656-.403-2.614-1.26-.96-.856-.953-2.307-.006-1.189.636-2.077.643-.889 1.768-1.387 1.125-.499 2.556-.499 1.458 0 2.548.499 1.09.498 1.697 1.387.607.888.626 2.058zm5.44-1.483h-4.009v-2.282h10.752v2.282h-4.008V149h-2.736v-10.809zM277.167 149h-8.846v-13.09h8.82v2.281h-6.053v3.12h5.6v2.281h-5.6v3.126h6.08V149zm4.845 0h-2.768v-13.09h5.165q1.483 0 2.534.526 1.052.528 1.605 1.49.552.962.552 2.26 0 1.303-.562 2.24-.563.936-1.627 1.435-1.064.498-2.573.498h-3.458v-2.224h3.01q.794 0 1.318-.217.524-.218.783-.652.259-.435.259-1.08 0-.653-.26-1.1-.258-.448-.785-.68-.528-.234-1.327-.234h-1.866V149zm1.316-5.957h2.986l3.253 5.957h-3.055l-3.184-5.957z"></path></g><path d="M427.951 45.492h-2.8q-.076-.543-.313-.968-.236-.425-.607-.726-.37-.3-.853-.46-.483-.16-1.045-.16-1.017 0-1.771.502t-1.17 1.457q-.415.956-.415 2.318 0 1.4.418 2.352.42.952 1.173 1.438.755.486 1.745.486.557 0 1.033-.147.476-.147.847-.432.37-.284.617-.693.246-.41.341-.933l2.8.012q-.108.902-.54 1.736-.431.834-1.157 1.49-.725.654-1.726 1.035-1 .38-2.26.38-1.75 0-3.128-.793-1.378-.792-2.174-2.294-.795-1.503-.795-3.637 0-2.142.805-3.644.805-1.502 2.186-2.291 1.38-.79 3.107-.79 1.137 0 2.112.32.975.32 1.73.93.754.61 1.23 1.492t.61 2.02zm13.915 1.963q0 2.14-.809 3.643-.808 1.502-2.198 2.292-1.39.789-3.123.789-1.745 0-3.132-.793-1.387-.792-2.193-2.294-.805-1.503-.805-3.637 0-2.142.805-3.644.806-1.502 2.193-2.291 1.387-.79 3.132-.79 1.732 0 3.123.79 1.39.789 2.198 2.291.809 1.502.809 3.644zm-2.806 0q0-1.388-.412-2.34-.413-.952-1.16-1.445-.748-.492-1.752-.492t-1.751.492q-.748.493-1.16 1.445-.413.952-.413 2.34 0 1.387.412 2.339.413.952 1.16 1.445.748.492 1.752.492t1.751-.492q.748-.493 1.16-1.445.413-.952.413-2.34zm14.503-2.781h-2.653q-.077-.773-.658-1.202-.582-.428-1.58-.428-.677 0-1.143.189-.467.188-.713.52-.246.333-.246.755-.013.351.15.613.163.263.45.451.288.189.665.326.378.138.806.233l1.176.282q.856.191 1.572.511.716.32 1.24.786.525.467.815 1.1.291.632.298 1.45-.007 1.202-.61 2.081-.605.88-1.74 1.362-1.134.482-2.732.482-1.585 0-2.758-.485-1.173-.486-1.828-1.442-.655-.955-.687-2.368h2.678q.045.658.38 1.096.336.438.901.659.566.22 1.282.22.703 0 1.224-.204.521-.205.809-.57.287-.364.287-.837 0-.44-.259-.741-.258-.3-.754-.512-.495-.21-1.211-.383l-1.426-.358q-1.655-.403-2.614-1.26-.959-.856-.952-2.307-.007-1.189.636-2.077.642-.889 1.767-1.387 1.125-.499 2.557-.499 1.457 0 2.547.499 1.09.498 1.697 1.387.608.888.627 2.058zm5.439-1.483h-4.008V40.91h10.751v2.282h-4.008V54h-2.735V43.191zm7.612 4.353h5.97v2.16h-5.97v-2.16zM483.699 54h-8.847V40.91h8.821v2.281h-6.053v3.12h5.6v2.281h-5.6v3.126h6.079V54zm4.844 0h-2.767V40.91h8.667v2.281h-5.9v3.12h5.325v2.281h-5.325V54zm10.425 0H496.2V40.91h8.668v2.281h-5.9v3.12h5.325v2.281h-5.325V54zm7.657-13.09h2.768V54h-2.768V40.91zm16.497 4.582h-2.8q-.076-.543-.313-.968-.236-.425-.607-.726-.37-.3-.853-.46-.483-.16-1.045-.16-1.017 0-1.771.502t-1.17 1.457q-.415.956-.415 2.318 0 1.4.418 2.352.42.952 1.173 1.438.755.486 1.745.486.557 0 1.033-.147.476-.147.847-.432.37-.284.617-.693.246-.41.342-.933l2.8.012q-.11.902-.54 1.736-.432.834-1.158 1.49-.725.654-1.726 1.035-1 .38-2.26.38-1.75 0-3.128-.793-1.378-.792-2.174-2.294-.795-1.503-.795-3.637 0-2.142.805-3.644.805-1.502 2.186-2.291 1.38-.79 3.107-.79 1.137 0 2.112.32.975.32 1.73.93.754.61 1.23 1.492t.61 2.02zm1.885-4.583h2.768V54h-2.768V40.91zM538.8 54h-8.846V40.91h8.82v2.281h-6.052v3.12h5.6v2.281h-5.6v3.126h6.078V54zm10.272-13.09h2.755V54h-2.39l-5.696-8.24h-.096V54h-2.768V40.91h2.43l5.65 8.232h.115v-8.233zm16.484 4.582h-2.8q-.076-.543-.313-.968-.236-.425-.607-.726-.37-.3-.853-.46-.483-.16-1.046-.16-1.016 0-1.77.502t-1.17 1.457q-.415.956-.415 2.318 0 1.4.418 2.352.419.952 1.173 1.438.755.486 1.745.486.556 0 1.033-.147.476-.147.847-.432.37-.284.616-.693.247-.41.342-.933l2.8.012q-.109.902-.54 1.736-.431.834-1.157 1.49-.725.654-1.726 1.035-1 .38-2.26.38-1.75 0-3.128-.793-1.378-.792-2.174-2.294-.795-1.503-.795-3.637 0-2.142.805-3.644.805-1.502 2.186-2.291 1.38-.79 3.107-.79 1.137 0 2.112.32.975.32 1.73.93.753.61 1.23 1.492.476.882.61 2.02zm5.893 3.88l-4.775-8.463h3.1l2.985 5.638h.128l2.985-5.638h3.1l-4.775 8.463V54h-2.748v-4.628zM847.91 54h-2.767V40.91h5.165q1.483 0 2.534.526 1.051.528 1.604 1.49.553.962.553 2.26 0 1.303-.562 2.24-.563.936-1.627 1.435-1.064.498-2.573.498h-3.458v-2.224h3.01q.793 0 1.318-.217.524-.218.783-.652.258-.435.258-1.08 0-.653-.258-1.1-.26-.448-.787-.68-.527-.234-1.326-.234h-1.866V54zm1.317-5.957h2.985L855.466 54h-3.055l-3.184-5.957zM865.7 54h-8.847V40.91h8.821v2.281h-6.053v3.12h5.6v2.281h-5.6v3.126h6.079V54zm11.83-9.326h-2.652q-.077-.773-.658-1.202-.582-.428-1.58-.428-.677 0-1.143.189-.467.188-.713.52-.246.333-.246.755-.013.351.15.613.163.263.45.451.288.189.666.326.377.138.805.233l1.176.282q.857.191 1.573.511.715.32 1.24.786.524.467.815 1.1.29.632.297 1.45-.007 1.202-.61 2.081-.605.88-1.74 1.362-1.134.482-2.732.482-1.585 0-2.758-.485-1.173-.486-1.828-1.442-.655-.955-.687-2.368h2.678q.045.658.38 1.096.336.438.902.659.565.22 1.281.22.703 0 1.224-.204.521-.205.809-.57.287-.364.287-.837 0-.44-.258-.741-.26-.3-.755-.512-.495-.21-1.211-.383l-1.425-.358q-1.656-.403-2.615-1.26-.959-.856-.952-2.307-.007-1.189.636-2.077.642-.889 1.767-1.387 1.125-.499 2.557-.499 1.457 0 2.547.499 1.09.498 1.697 1.387.608.888.627 2.058zm1.93-3.765h2.768V54h-2.768V40.91zM892.786 54h-8.38V40.91h2.768v10.808h5.612V54zm1.732-13.09h2.767V54h-2.767V40.91zM908.31 54h-8.847V40.91h8.821v2.281h-6.053v3.12h5.6v2.281h-5.6v3.126h6.079V54zm10.271-13.09h2.755V54h-2.39l-5.696-8.24h-.096V54h-2.767V40.91h2.429l5.65 8.232h.115v-8.233zm16.485 4.582h-2.8q-.077-.543-.313-.968-.237-.425-.608-.726-.37-.3-.853-.46-.482-.16-1.045-.16-1.016 0-1.77.502-.755.502-1.17 1.457-.416.956-.416 2.318 0 1.4.419 2.352t1.173 1.438q.754.486 1.745.486.556 0 1.032-.147t.847-.432q.37-.284.617-.693.246-.41.342-.933l2.8.012q-.109.902-.54 1.736-.432.834-1.157 1.49-.726.654-1.726 1.035-1 .38-2.26.38-1.751 0-3.129-.793-1.377-.792-2.173-2.294-.796-1.503-.796-3.637 0-2.142.806-3.644.805-1.502 2.186-2.291 1.38-.79 3.106-.79 1.138 0 2.113.32.974.32 1.729.93.754.61 1.23 1.492t.61 2.02zM945.798 54h-8.846V40.91h8.82v2.281h-6.053v3.12h5.6v2.281h-5.6v3.126h6.08V54z" fill="#333" fill-rule="nonzero"></path><g fill="#333" fill-rule="nonzero"><path d="M1040.409 32.9l-3.286 10.1h-2.966l4.52-13.09h3.566l4.513 13.09h-2.966l-3.279-10.1h-.102zm-3.471 7.115v-2.16h7.005v2.16h-7.005zM1050.993 43h-2.768V29.91h5.165q1.49 0 2.538.565 1.048.565 1.601 1.566.553 1 .553 2.304 0 1.304-.563 2.301-.562.997-1.626 1.554-1.065.556-2.573.556h-3.292v-2.218h2.844q.8 0 1.32-.278.521-.278.78-.774.26-.495.26-1.14 0-.653-.26-1.142-.259-.489-.783-.76-.524-.272-1.33-.272h-1.866V43zm11.556 0h-2.767V29.91h5.164q1.49 0 2.538.565 1.048.565 1.601 1.566.553 1 .553 2.304 0 1.304-.562 2.301-.563.997-1.627 1.554-1.064.556-2.573.556h-3.292v-2.218h2.845q.799 0 1.32-.278.52-.278.78-.774.258-.495.258-1.14 0-.653-.259-1.142-.259-.489-.783-.76-.524-.272-1.33-.272h-1.866V43zm17.169 0h-8.38V29.91h2.767v10.808h5.613V43zm1.731-13.09h2.768V43h-2.768V29.91zm16.497 4.582h-2.8q-.076-.543-.313-.968-.236-.425-.607-.726-.37-.3-.853-.46-.483-.16-1.045-.16-1.017 0-1.771.502t-1.17 1.457q-.415.956-.415 2.318 0 1.4.418 2.352.42.952 1.173 1.438.755.486 1.745.486.557 0 1.033-.147.476-.147.847-.432.37-.284.617-.693.246-.41.342-.933l2.8.012q-.11.902-.54 1.736-.432.834-1.158 1.49-.725.654-1.726 1.035-1 .38-2.26.38-1.75 0-3.128-.793-1.378-.792-2.173-2.294-.796-1.503-.796-3.637 0-2.142.805-3.644.805-1.502 2.186-2.291 1.38-.79 3.107-.79 1.138 0 2.112.32.975.32 1.73.93.754.61 1.23 1.492t.61 2.02zm7.184-1.591L1101.845 43h-2.966l4.519-13.09h3.567l4.512 13.09h-2.965l-3.28-10.1h-.102zm-3.47 7.114v-2.16h7.005v2.16h-7.006zm13.185-7.824h-4.007V29.91h10.751v2.282h-4.008V43h-2.736V32.191zm8.418-2.282h2.768V43h-2.768V29.91zm16.976 6.546q0 2.14-.808 3.643-.809 1.502-2.199 2.292-1.39.789-3.122.789-1.745 0-3.133-.793-1.387-.792-2.192-2.294-.805-1.503-.805-3.637 0-2.142.805-3.644.805-1.502 2.192-2.291 1.387-.79 3.133-.79 1.732 0 3.122.79 1.39.789 2.199 2.291.808 1.502.808 3.644zm-2.806 0q0-1.388-.412-2.34t-1.16-1.445q-.748-.492-1.751-.492-1.004 0-1.752.492-.748.493-1.16 1.445-.412.952-.412 2.34 0 1.387.412 2.339t1.16 1.445q.748.492 1.752.492 1.003 0 1.75-.492.749-.493 1.161-1.445.412-.952.412-2.34zm12.944-6.546h2.755V43h-2.391l-5.695-8.24h-.096V43h-2.768V29.91h2.429l5.65 8.232h.116v-8.233z"></path><path></path><path d="M1059.298 55.674h-2.653q-.076-.773-.658-1.202-.582-.428-1.579-.428-.677 0-1.144.189-.467.188-.713.52-.246.333-.246.755-.013.351.15.613.163.263.451.451.288.189.665.326.377.138.805.233l1.176.282q.857.191 1.573.511t1.24.786q.524.467.815 1.1.29.632.297 1.45-.006 1.202-.61 2.081-.604.88-1.74 1.362-1.134.482-2.732.482-1.585 0-2.758-.485-1.173-.486-1.828-1.442-.655-.955-.687-2.368h2.678q.045.658.38 1.096.336.438.902.659.565.22 1.281.22.704 0 1.224-.204.521-.205.81-.57.287-.364.287-.837 0-.44-.26-.741-.258-.3-.753-.512-.496-.21-1.212-.383l-1.425-.358q-1.656-.403-2.615-1.26-.958-.856-.952-2.307-.006-1.189.636-2.077.642-.889 1.767-1.387 1.125-.499 2.557-.499 1.458 0 2.548.499 1.09.498 1.697 1.387.607.888.626 2.058zM1070.074 65h-8.846V51.91h8.82v2.281h-6.053v3.12h5.6v2.281h-5.6v3.126h6.08V65zm13.627-8.508h-2.8q-.076-.543-.313-.968-.236-.425-.607-.726-.37-.3-.853-.46-.483-.16-1.045-.16-1.017 0-1.77.502-.755.502-1.17 1.457-.416.956-.416 2.318 0 1.4.419 2.352.418.952 1.173 1.438.754.486 1.745.486.556 0 1.032-.147t.847-.432q.37-.284.617-.693.246-.41.342-.933l2.8.012q-.11.902-.54 1.736-.432.834-1.158 1.49-.725.654-1.726 1.035-1 .38-2.26.38-1.75 0-3.128-.793-1.378-.792-2.173-2.294-.796-1.503-.796-3.637 0-2.142.805-3.644.806-1.502 2.186-2.291 1.381-.79 3.107-.79 1.138 0 2.112.32.975.32 1.73.93.754.61 1.23 1.492t.61 2.02zm9.971 3.682v-8.265h2.768v8.502q0 1.431-.68 2.505-.681 1.074-1.902 1.672-1.221.597-2.845.597-1.63 0-2.85-.597-1.222-.598-1.9-1.672-.677-1.074-.677-2.505v-8.502h2.768v8.265q0 .748.33 1.33.328.581.93.914.6.332 1.4.332.805 0 1.402-.332.598-.333.927-.914.33-.582.33-1.33zM1101.38 65h-2.767V51.91h5.164q1.483 0 2.535.526 1.051.528 1.604 1.49.553.962.553 2.26 0 1.303-.562 2.24-.563.936-1.627 1.435-1.064.498-2.573.498h-3.458v-2.224h3.01q.793 0 1.317-.217.525-.218.783-.652.26-.435.26-1.08 0-.653-.26-1.1-.258-.448-.786-.68-.527-.234-1.326-.234h-1.867V65zm1.317-5.957h2.985l3.254 5.957h-3.056l-3.183-5.957zm7.625-7.134h2.768V65h-2.768V51.91zm8.456 2.282h-4.008V51.91h10.752v2.282h-4.008V65h-2.736V54.191zm12.425 6.181l-4.774-8.463h3.1l2.985 5.638h.128l2.985-5.638h3.1l-4.775 8.463V65h-2.749v-4.628z"></path></g><g fill="#333" fill-rule="nonzero"><path d="M667.337 43h-8.846V29.91h8.82v2.281h-6.052v3.12h5.599v2.281h-5.6v3.126h6.08V43zm7.619-10.1L671.67 43h-2.965l4.519-13.09h3.566L681.303 43h-2.966l-3.279-10.1h-.102zm-3.47 7.115v-2.16h7.005v2.16h-7.006zm20.734-6.341h-2.653q-.076-.773-.658-1.202-.582-.428-1.579-.428-.677 0-1.144.189-.467.188-.713.52-.246.333-.246.755-.013.351.15.613.163.263.451.451.288.189.665.326.377.138.805.233l1.176.282q.857.191 1.573.511t1.24.786q.524.467.815 1.1.29.632.297 1.45-.006 1.202-.61 2.081-.604.88-1.739 1.362-1.135.482-2.733.482-1.585 0-2.758-.485-1.173-.486-1.828-1.442-.655-.955-.687-2.368h2.678q.045.658.38 1.096.336.438.902.659.566.22 1.281.22.704 0 1.225-.204.52-.205.808-.57.288-.364.288-.837 0-.44-.26-.741-.258-.3-.753-.512-.496-.21-1.212-.383l-1.425-.358q-1.656-.403-2.614-1.26-.96-.856-.953-2.307-.006-1.189.636-2.077.643-.889 1.768-1.387 1.125-.499 2.556-.499 1.458 0 2.548.499 1.09.498 1.697 1.387.607.888.626 2.058zM702.996 43h-8.846V29.91h8.82v2.281h-6.052v3.12h5.599v2.281h-5.6v3.126h6.08V43zm18.178-6.545q0 2.14-.809 3.643-.808 1.502-2.199 2.292-1.39.789-3.122.789-1.745 0-3.132-.793-1.387-.792-2.193-2.294-.805-1.503-.805-3.637 0-2.142.805-3.644.806-1.502 2.193-2.291 1.387-.79 3.132-.79 1.732 0 3.122.79 1.39.789 2.2 2.291.808 1.502.808 3.644zm-2.806 0q0-1.388-.412-2.34-.413-.952-1.16-1.445-.748-.492-1.752-.492t-1.751.492q-.748.493-1.16 1.445-.413.952-.413 2.34 0 1.387.412 2.339.413.952 1.16 1.445.748.492 1.752.492t1.751-.492q.748-.493 1.16-1.445.413-.952.413-2.34zM725.884 43h-2.768V29.91h8.668v2.281h-5.9v3.12h5.325v2.281h-5.325V43z"></path><path></path><path d="M632.656 65V51.91h3.413l3.605 8.795h.154l3.605-8.796h3.413V65h-2.685v-8.52h-.108l-3.388 8.456h-1.828l-3.388-8.489h-.109V65h-2.684zm21.905-10.1L651.275 65h-2.966l4.52-13.09h3.566L660.908 65h-2.966l-3.28-10.1h-.101zm-3.471 7.115v-2.16h7.005v2.16h-7.005zm19.482-10.106h2.755V65h-2.39l-5.696-8.24h-.096V65h-2.768V51.91h2.43l5.65 8.232h.115v-8.233zm10.476 2.992L677.762 65h-2.966l4.52-13.09h3.566L687.395 65h-2.966l-3.279-10.1h-.102zm-3.471 7.114v-2.16h7.006v2.16h-7.006zm22.167-5.874h-2.813q-.134-.467-.377-.828-.243-.361-.591-.614-.348-.252-.793-.386-.444-.135-.98-.135-1.004 0-1.762.499-.757.498-1.18 1.448-.421.949-.421 2.317 0 1.368.415 2.326.416.96 1.177 1.461.76.502 1.796.502.94 0 1.607-.336.668-.335 1.023-.949.355-.614.355-1.451l.562.083h-3.375v-2.084h5.478v1.65q0 1.725-.728 2.962-.73 1.237-2.008 1.905-1.278.668-2.927.668-1.841 0-3.234-.815-1.394-.815-2.17-2.32-.777-1.506-.777-3.577 0-1.591.463-2.84.464-1.25 1.301-2.12.837-.87 1.95-1.323 1.112-.454 2.41-.454 1.112 0 2.07.323.96.323 1.704.91.745.589 1.218 1.397.473.809.607 1.78zM710.686 65h-8.846V51.91h8.82v2.281h-6.053v3.12h5.6v2.281h-5.6v3.126h6.08V65zm2.077 0V51.91h3.413l3.605 8.795h.154l3.605-8.796h3.413V65h-2.684v-8.52h-.11l-3.387 8.456h-1.828l-3.388-8.489h-.108V65h-2.685zm25.21 0h-8.847V51.91h8.82v2.281h-6.052v3.12h5.599v2.281h-5.6v3.126h6.08V65zm10.27-13.09H751V65h-2.39l-5.696-8.24h-.096V65h-2.768V51.91h2.43l5.65 8.232h.115v-8.233zm8.444 2.281h-4.008V51.91h10.751v2.282h-4.007V65h-2.736V54.191z"></path></g><path stroke="#333" stroke-width="5" stroke-linecap="square" d="M189.5 347.5h1003.955M189.5 260.5h1003.955M189.5 172.5h1004.955M395 10l.5 425.5m-206-351h1008.955M596 9v426M797 9v426M998 9v426M1199 9v426m-1009.955 1l1009.41-.5"></path><path fill="#3ADA16" d="M417 107h150v41H417z"></path><path fill="#F88A1C" d="M417 282h38v41h-38z"></path><path fill="#F8E919" d="M417 195h75v41h-75z"></path><path fill="#FF1717" d="M417 372h19v41h-19z"></path><path fill="#3ADA16" d="M618 107h150v41H618z"></path><path fill="#F88A1C" d="M618 282h38v41h-38z"></path><path fill="#F8E919" d="M618 195h75v41h-75z"></path><path fill="#FF1717" d="M618 372h19v41h-19z"></path><path fill="#3ADA16" d="M823 413h150v-41H823z"></path><path fill="#F88A1C" d="M823 238h38v-41h-38z"></path><path fill="#F8E919" d="M823 325h75v-41h-75z"></path><path fill="#FF1717" d="M823 148h19v-41h-19z"></path><path fill="#3ADA16" d="M1020 413h150v-41h-150z"></path><path fill="#F88A1C" d="M1020 238h38v-41h-38z"></path><path fill="#F8E919" d="M1020 325h75v-41h-75z"></path><path fill="#FF1717" d="M1020 148h19v-41h-19z"></path><path d="M50.996 82.996l.004 2.5.453 275.999 12-.019L49.001 390.5l-14.548-28.976 12-.02-.453-276-.004-2.5 5-.008zM115.5 123l14.547 28.976-12.001.019.454 276 .004 2.5-5 .01-.004-2.5-.454-276.001-12 .02L115.5 123z" fill="#333" fill-rule="nonzero"></path></g></svg>